<svg width="100" height="100" viewBox="0 0 100 100" fill="none" xmlns="http://www.w3.org/2000/svg">
<circle cx="50" cy="50" r="50" fill="#FBFBFB"/>
<path d="M54.3233 55.25C61.195 55.25 66 50.3726 66 43.3613C66 36.35 61.195 31.625 54.3233 31.625H41.1354C40.6004 31.625 40.1667 32.0658 40.1667 32.6094V49.5597H35.9688C35.4338 49.5597 35 50.0004 35 50.544V54.2656C35 54.8092 35.4338 55.25 35.9688 55.25H40.1667V57.875H35.9688C35.4338 57.875 35 58.3158 35 58.8594V62.1406C35 62.6842 35.4338 63.125 35.9688 63.125H40.1667V67.3906C40.1667 67.9342 40.6004 68.375 41.1354 68.375H45.8629C46.3979 68.375 46.8317 67.9342 46.8317 67.3906V63.125H59.8646C60.3996 63.125 60.8333 62.6842 60.8333 62.1406V58.8594C60.8333 58.3158 60.3996 57.875 59.8646 57.875H46.8317V55.25H54.3233ZM46.8317 37.2645H53.1867C56.9583 37.2645 59.2317 39.6524 59.2317 43.3613C59.2317 47.1209 56.9583 49.5597 53.0833 49.5597H46.8317V37.2645Z" fill="#FF6B00"/>
<g clip-path="url(#clip0_629_5)">
<circle cx="35" cy="54" r="10" fill="#FF6B00"/>
<path d="M34.5 41C27.5357 41 22 46.5357 22 53.5C22 60.4643 27.5357 66 34.5 66C41.4643 66 47 60.4643 47 53.5C47 46.5357 41.4643 41 34.5 41ZM39.3214 59.75L34.5 54.9286L29.6786 59.75L28.25 58.3214L33.0714 53.5L28.25 48.6786L29.6786 47.25L34.5 52.0714L39.3214 47.25L40.75 48.6786L35.9286 53.5L40.75 58.3214L39.3214 59.75Z" fill="#FFD7BA"/>
</g>
<defs>
<clipPath id="clip0_629_5">
<rect width="25" height="25" fill="white" transform="translate(22 41)"/>
</clipPath>
</defs>
</svg>
