<svg width="100" height="100" viewBox="0 0 100 100" fill="none" xmlns="http://www.w3.org/2000/svg">
<circle cx="50" cy="50" r="50" fill="#FBFBFB"/>
<g clip-path="url(#clip0_629_6)">
<path d="M49.5 27.1875V38.3438C49.5 39.6118 50.0037 40.8279 50.9004 41.7246C51.7971 42.6213 53.0132 43.125 54.2812 43.125H65.4375V67.0312C65.4375 68.2993 64.9338 69.5154 64.0371 70.4121C63.1404 71.3088 61.9243 71.8125 60.6562 71.8125H38.3438C37.0757 71.8125 35.8596 71.3088 34.9629 70.4121C34.0662 69.5154 33.5625 68.2993 33.5625 67.0312V31.9688C33.5625 30.7007 34.0662 29.4846 34.9629 28.5879C35.8596 27.6912 37.0757 27.1875 38.3438 27.1875H49.5ZM52.6875 27.9844V38.3438C52.6875 38.7664 52.8554 39.1718 53.1543 39.4707C53.4532 39.7696 53.8586 39.9375 54.2812 39.9375H64.6406L52.6875 27.9844Z" fill="#FF6B00"/>
</g>
<circle cx="35.5" cy="54.5" r="12.5" fill="#FFD7BA"/>
<path d="M35.4996 46.2022C33.5467 46.2022 31.9579 47.791 31.9579 49.7438V51.8688H31.2496C30.8739 51.8688 30.5135 52.0181 30.2479 52.2838C29.9822 52.5495 29.8329 52.9098 29.8329 53.2855V58.9522C29.8329 59.3279 29.9822 59.6882 30.2479 59.9539C30.5135 60.2196 30.8739 60.3688 31.2496 60.3688H39.7496C40.1253 60.3688 40.4857 60.2196 40.7513 59.9539C41.017 59.6882 41.1663 59.3279 41.1663 58.9522V53.2855C41.1663 52.9098 41.017 52.5495 40.7513 52.2838C40.4857 52.0181 40.1253 51.8688 39.7496 51.8688H39.0413V49.7438C39.0413 47.791 37.4525 46.2022 35.4996 46.2022ZM33.3746 49.7438C33.3746 48.5723 34.328 47.6188 35.4996 47.6188C36.6712 47.6188 37.6246 48.5723 37.6246 49.7438V51.8688H33.3746V49.7438ZM36.2079 57.3393V58.9522H34.7913V57.3393C34.5436 57.1975 34.3448 56.984 34.2209 56.7268C34.0971 56.4697 34.0541 56.1811 34.0976 55.8991C34.1411 55.6171 34.269 55.3548 34.4646 55.147C34.6601 54.9391 34.914 54.7954 35.1929 54.7348C35.4 54.689 35.6148 54.6902 35.8214 54.7385C36.0279 54.7868 36.221 54.8808 36.3864 55.0136C36.5518 55.1464 36.6853 55.3147 36.777 55.506C36.8687 55.6973 36.9163 55.9067 36.9163 56.1188C36.9159 56.3666 36.8502 56.6098 36.7258 56.8241C36.6015 57.0384 36.4228 57.2161 36.2079 57.3393Z" fill="#FF6B00"/>
<defs>
<clipPath id="clip0_629_6">
<rect width="33" height="45" fill="white" transform="translate(33 27)"/>
</clipPath>
</defs>
</svg>
