<svg width="100" height="100" viewBox="0 0 100 100" fill="none" xmlns="http://www.w3.org/2000/svg">
<circle cx="50" cy="50" r="50" fill="#FBFBFB"/>
<g clip-path="url(#clip0_629_3)">
<path d="M67.0357 41.8125H32.9643C32.4339 41.8125 32 41.3801 32 40.8516V37.9688C32 35.8467 33.7277 34.125 35.8571 34.125H39.7143V29.9609C39.7143 29.4324 40.1482 29 40.6786 29H43.8929C44.4232 29 44.8571 29.4324 44.8571 29.9609V34.125H55.1429V29.9609C55.1429 29.4324 55.5768 29 56.1071 29H59.3214C59.8518 29 60.2857 29.4324 60.2857 29.9609V34.125H64.1429C66.2723 34.125 68 35.8467 68 37.9688V40.8516C68 41.3801 67.5661 41.8125 67.0357 41.8125ZM32.9643 44.375H67.0357C67.5661 44.375 68 44.8074 68 45.3359V66.1562C68 68.2783 66.2723 70 64.1429 70H35.8571C33.7277 70 32 68.2783 32 66.1562V45.3359C32 44.8074 32.4339 44.375 32.9643 44.375ZM53.6402 57.1875L57.5054 53.3357C57.883 52.9594 57.883 52.3508 57.5054 51.9744L55.2313 49.7082C54.8536 49.3318 54.2429 49.3318 53.8652 49.7082L50 53.56L46.1348 49.7082C45.7571 49.3318 45.1464 49.3318 44.7687 49.7082L42.4946 51.9744C42.117 52.3508 42.117 52.9594 42.4946 53.3357L46.3598 57.1875L42.4946 61.0393C42.117 61.4156 42.117 62.0242 42.4946 62.4006L44.7687 64.6668C45.1464 65.0432 45.7571 65.0432 46.1348 64.6668L50 60.815L53.8652 64.6668C54.2429 65.0432 54.8536 65.0432 55.2313 64.6668L57.5054 62.4006C57.883 62.0242 57.883 61.4156 57.5054 61.0393L53.6402 57.1875Z" fill="#FF6B00"/>
<rect x="40" y="47" width="20" height="19" fill="#FF6B00"/>
</g>
<circle cx="67.5" cy="59.5" r="12.5" fill="#FFD7BA"/>
<path d="M66.5311 61.9811L72.0688 54.4782C72.0753 54.4698 72.0821 54.4619 72.0893 54.4543L72.1114 54.4312C72.3052 54.2475 72.5549 54.148 72.8118 54.15C73.0801 54.1522 73.339 54.265 73.5334 54.4679C73.728 54.671 73.8423 54.9484 73.8496 55.242C73.8569 55.5356 73.7566 55.8193 73.572 56.0334L73.5717 56.0332L73.5657 56.0412L67.2061 64.4988C67.1106 64.6072 66.9962 64.6937 66.87 64.7537C66.7422 64.8145 66.6046 64.8471 66.4653 64.8498C66.3261 64.8526 66.1875 64.8254 66.0578 64.7698C65.928 64.7141 65.8095 64.6309 65.7096 64.5247L65.7096 64.5247L61.4899 60.0375L61.49 60.0374L61.4863 60.0337C61.3831 59.9315 61.2998 59.8077 61.2419 59.6694C61.184 59.5312 61.1527 59.3816 61.1502 59.2297C61.1476 59.0778 61.1739 58.9271 61.2273 58.7867C61.2806 58.6463 61.3598 58.5193 61.4596 58.4132C61.5594 58.307 61.6777 58.2239 61.8073 58.1683C61.9368 58.1126 62.0752 58.0854 62.2143 58.088C62.3534 58.0907 62.4909 58.123 62.6186 58.1835C62.7463 58.2441 62.862 58.3316 62.9583 58.4415L62.9582 58.4416L62.9618 58.4455L66.3012 61.9948L66.4244 62.1258L66.5311 61.9811Z" fill="#FF6B00" stroke="#FFD7BA" stroke-width="0.3"/>
<defs>
<clipPath id="clip0_629_3">
<rect width="36" height="41" fill="white" transform="translate(32 29)"/>
</clipPath>
</defs>
</svg>
