<svg width="100" height="100" viewBox="0 0 100 100" fill="none" xmlns="http://www.w3.org/2000/svg">
<circle cx="50" cy="50" r="50" fill="#FBFBFB"/>
<path fill-rule="evenodd" clip-rule="evenodd" d="M57.115 36.0409C57.4316 35.9567 57.7677 36.0036 58.0512 36.1714C58.3346 36.3393 58.5429 36.6148 58.6312 36.9389C59.0464 38.4682 59.112 40.0757 58.8231 41.6355C58.5341 43.1953 57.8984 44.6651 56.9657 45.93C56.033 47.1948 54.8286 48.2204 53.4467 48.9265C52.0648 49.6326 50.5428 50 49 50C47.4572 50 45.9352 49.6326 44.5533 48.9265C43.1714 48.2204 41.967 47.1948 41.0343 45.93C40.1016 44.6651 39.4659 43.1953 39.1769 41.6355C38.888 40.0757 38.9536 38.4682 39.3688 36.9389C39.4571 36.6148 39.6654 36.3393 39.9488 36.1714C40.2323 36.0036 40.5684 35.9567 40.885 36.0409C45.5375 37.276 52.4625 37.276 57.115 36.0409V36.0409ZM41.55 38.8352C41.4305 39.9156 41.5341 41.0097 41.8541 42.046C42.1741 43.0823 42.7032 44.0373 43.4067 44.8485C44.1102 45.6596 44.9724 46.3087 45.9366 46.7531C46.9008 47.1975 47.9454 47.4272 49.0019 47.4272C50.0584 47.4272 51.1029 47.1975 52.0672 46.7531C53.0314 46.3087 53.8935 45.6596 54.5971 44.8485C55.3006 44.0373 55.8297 43.0823 56.1496 42.046C56.4696 41.0097 56.5732 39.9156 56.4537 38.8352C51.9325 39.7743 46.07 39.7743 41.55 38.8352Z" fill="#FF6B00"/>
<path fill-rule="evenodd" clip-rule="evenodd" d="M43.25 50.4878C35.7663 51.765 27 55.0259 27 59.6667V67H72V59.6667C72 55.0259 63.2337 51.765 55.75 50.4878V56H43.25V50.4878V50.4878ZM35.75 67V56H38.25V67H35.75ZM62 56V67H64.5V56H62ZM50.75 23.0709V28.4756C50.75 28.7997 50.6183 29.1106 50.3839 29.3398C50.1495 29.569 49.8315 29.6978 49.5 29.6978C49.1685 29.6978 48.8505 29.569 48.6161 29.3398C48.3817 29.1106 48.25 28.7997 48.25 28.4756V23C46.9595 23.0667 45.6906 23.352 44.5 23.8433V30.92C44.5 31.2442 44.3683 31.555 44.1339 31.7842C43.8995 32.0135 43.5815 32.1422 43.25 32.1422C42.9185 32.1422 42.6005 32.0135 42.3661 31.7842C42.1317 31.555 42 31.2442 42 30.92V25.365C40.2875 26.8048 39.3 28.6723 38.9862 30.3089C38.9755 30.3658 38.9655 30.4228 38.9562 30.48L38.9313 30.5044C38.82 31.2732 38.8813 31.9063 39.0413 32.3414C39.1437 32.6442 39.1211 32.9741 38.9783 33.2608C38.8354 33.5475 38.5836 33.7683 38.2766 33.8759C37.9695 33.9836 37.6317 33.9697 37.335 33.8371C37.0383 33.7046 36.8064 33.4639 36.6888 33.1664C36.6676 33.1098 36.6476 33.0528 36.6288 32.9953C29.37 42.2622 69.67 42.2573 62.3587 32.9794C62.3398 33.0393 62.3198 33.0988 62.2987 33.1579C62.1835 33.4564 61.9534 33.699 61.6577 33.8339C61.362 33.9688 61.024 33.9852 60.7161 33.8797C60.4081 33.7742 60.1545 33.5552 60.0095 33.2694C59.8645 32.9835 59.8396 32.6536 59.94 32.35C60.12 31.844 60.1725 31.2133 60.075 30.5167C60.0676 30.5113 60.0601 30.506 60.0525 30.5008C59.7825 28.8483 58.755 27.0211 57 25.5813V30.92C57 31.2442 56.8683 31.555 56.6339 31.7842C56.3995 32.0135 56.0815 32.1422 55.75 32.1422C55.4185 32.1422 55.1005 32.0135 54.8661 31.7842C54.6317 31.555 54.5 31.2442 54.5 30.92V24.0536C54.0119 23.8392 53.5095 23.6575 52.9963 23.5097C52.2618 23.3004 51.5103 23.1532 50.75 23.0697V23.0709Z" fill="#FF6B00"/>
<circle cx="63.5" cy="59.5" r="12.5" fill="#FFE2CD"/>
<g clip-path="url(#clip0_2_846)">
<path d="M63.734 51.5322C59.4695 51.5322 56 55.0016 56 59.2662C56 63.5307 59.4695 67.0002 63.734 67.0002C67.9985 67.0002 71.468 63.5307 71.468 59.2662C71.468 55.0016 67.9985 51.5322 63.734 51.5322ZM63.734 65.4534C60.3225 65.4534 57.5468 62.6777 57.5468 59.2662C57.5468 55.8547 60.3225 53.079 63.734 53.079C67.1455 53.079 69.9212 55.8547 69.9212 59.2662C69.9212 62.6777 67.1455 65.4534 63.734 65.4534Z" fill="#FF6B00"/>
<path d="M64.1947 55.2148H62.6299V59.3368L65.2064 61.844L66.3127 60.7674L64.1947 58.7064V55.2148Z" fill="#FF6B00"/>
</g>
<defs>
<clipPath id="clip0_2_846">
<rect width="16" height="16" fill="white" transform="translate(56 51)"/>
</clipPath>
</defs>
</svg>
