<svg width="100" height="100" viewBox="0 0 100 100" fill="none" xmlns="http://www.w3.org/2000/svg">
<circle cx="50" cy="50" r="50" fill="#FBFBFB"/>
<path d="M50.9165 29L33.833 35.4063V48.4111C33.833 59.1951 41.1148 69.253 50.9165 71.7087C60.7182 69.253 68 59.1951 68 48.4111V35.4063L50.9165 29ZM50.9165 61.0316C45.0227 61.0316 40.2393 56.2482 40.2393 50.3544C40.2393 44.4606 45.0227 39.6772 50.9165 39.6772C56.8103 39.6772 61.5937 44.4606 61.5937 50.3544C61.5937 56.2482 56.8103 61.0316 50.9165 61.0316ZM54.44 55.3727L49.8488 50.7815V43.9481H51.9842V49.9059L55.9348 53.8565L54.44 55.3727V55.3727Z" fill="#FF6B00"/>
<rect x="38.8291" y="37.3003" width="23.2078" height="25.1418" fill="#FF6B00"/>
<circle cx="36.5" cy="54.084" r="12.5" fill="#FFD7BA"/>
<path d="M35.96 59.15C35.22 59.15 34.495 59.045 33.785 58.835C33.085 58.615 32.495 58.315 32.015 57.935L32.855 56.42C33.235 56.73 33.695 56.98 34.235 57.17C34.775 57.36 35.34 57.455 35.93 57.455C36.63 57.455 37.175 57.315 37.565 57.035C37.955 56.745 38.15 56.355 38.15 55.865C38.15 55.385 37.97 55.005 37.61 54.725C37.25 54.445 36.67 54.305 35.87 54.305H34.91V52.97L37.91 49.4L38.165 50.135H32.525V48.5H39.68V49.805L36.68 53.375L35.66 52.775H36.245C37.535 52.775 38.5 53.065 39.14 53.645C39.79 54.215 40.115 54.95 40.115 55.85C40.115 56.44 39.965 56.985 39.665 57.485C39.365 57.985 38.905 58.39 38.285 58.7C37.675 59 36.9 59.15 35.96 59.15Z" fill="#FF6B00"/>
</svg>
