<svg width="13" height="14" viewBox="0 0 13 14" fill="none" xmlns="http://www.w3.org/2000/svg">
<g clip-path="url(#clip0_2_881)">
<path d="M4.26054 12.0858V12.0857H4.24088H4.24083V11.9857C4.09744 11.9858 3.95962 11.9352 3.85641 11.8447C3.7532 11.7541 3.69266 11.6306 3.68755 11.5002L3.41092 4.45122C3.40569 4.31768 3.45897 4.18772 3.55903 4.08994C3.65909 3.99215 3.79774 3.93454 3.94448 3.92978C4.09122 3.92502 4.23402 3.97351 4.34148 4.06457C4.44893 4.15563 4.51224 4.28181 4.51746 4.41534L4.26054 12.0858ZM4.26054 12.0858L4.26372 12.0857C4.34829 12.083 4.43167 12.0651 4.50917 12.033C4.58666 12.0008 4.65703 11.9548 4.71599 11.8972C4.77497 11.8395 4.82141 11.7714 4.85216 11.6963C4.88292 11.6212 4.89723 11.541 4.89402 11.4604C4.89402 11.4604 4.89402 11.4603 4.89402 11.4603M4.26054 12.0858L4.89402 11.4603M4.89402 11.4603L4.61739 4.41143C4.61739 4.41143 4.61739 4.41142 4.61739 4.41142L4.89402 11.4603ZM8.21374 2.0158H8.11374H4.7941H4.6941V1.9158V1.1611L8.21374 2.0158ZM8.21374 2.0158V1.9158V1.16115V2.0158ZM8.66696 12.0857C8.83347 12.0858 8.99506 12.0272 9.1174 11.9198C9.24001 11.8122 9.31397 11.6634 9.32022 11.5041L9.59685 4.45514L9.59685 4.45513C9.60001 4.37451 9.58566 4.29431 9.55488 4.21924C9.52412 4.14419 9.47767 4.07604 9.41871 4.01842C9.35977 3.96081 9.28943 3.91481 9.21196 3.88263C9.1345 3.85044 9.05115 3.83258 8.96661 3.82983C8.88206 3.82709 8.79761 3.83952 8.71799 3.86655C8.63836 3.89359 8.56481 3.93481 8.50172 3.98828C8.43861 4.04176 8.38711 4.10652 8.35066 4.17918C8.31419 4.25187 8.29361 4.33081 8.29046 4.41142L8.01382 11.4603C8.01382 11.4603 8.01382 11.4604 8.01382 11.4604C8.01062 11.541 8.02491 11.6211 8.05564 11.6962C8.08636 11.7712 8.13277 11.8394 8.19171 11.8971C8.25063 11.9547 8.32095 12.0007 8.3984 12.0329C8.47585 12.0651 8.55919 12.0829 8.64372 12.0857L8.64372 12.0857H8.64696H8.66696ZM8.66696 12.0857L8.66702 11.9857M8.66696 12.0857H8.66702V11.9857M8.66702 11.9857H8.64696L8.39038 4.41534C8.39297 4.34922 8.40984 4.28421 8.44004 4.22403C8.47024 4.16384 8.51316 4.10966 8.56637 4.06457C8.61958 4.01948 8.68202 3.98437 8.75014 3.96124C8.81825 3.93812 8.89071 3.92743 8.96337 3.92978C9.03602 3.93214 9.10746 3.94749 9.17359 3.97497C9.23973 4.00245 9.29927 4.04152 9.34882 4.08994C9.39836 4.13836 9.43694 4.19518 9.46236 4.25717C9.48777 4.31916 9.49952 4.3851 9.49693 4.45122L9.22029 11.5002C9.21518 11.6306 9.15464 11.7541 9.05143 11.8447C8.94822 11.9352 8.8104 11.9858 8.66702 11.9857ZM9.12029 1.9158V2.0158H9.22029H12.5399C12.663 2.0158 12.7794 2.06038 12.8639 2.13723C12.948 2.21378 12.9932 2.31548 12.9932 2.41929C12.9932 2.5231 12.948 2.6248 12.8639 2.70136C12.7794 2.7782 12.663 2.82279 12.5399 2.82279H11.9521H11.8587L11.8523 2.91596L11.1953 12.5138C11.1404 13.3138 10.4905 13.8997 9.63525 13.8997H3.2726C2.42142 13.8997 1.75835 13.2995 1.71261 12.5124L1.71254 12.5113L1.05553 2.91596L1.04915 2.82279H0.955764H0.36791C0.244811 2.82279 0.128431 2.7782 0.0439918 2.70136C-0.0401332 2.6248 -0.0853638 2.5231 -0.0853638 2.41929C-0.0853638 2.31548 -0.0401332 2.21378 0.0439918 2.13723C0.128431 2.06038 0.244811 2.0158 0.36791 2.0158H3.68755H3.78755V1.9158V1.16055C3.78755 0.856439 3.92022 0.562638 4.15998 0.344446C4.40006 0.125968 4.72753 0.00180969 5.07074 0.00180969H7.83711C8.18031 0.00180969 8.50778 0.125968 8.74786 0.344446C8.98762 0.562638 9.12029 0.856439 9.12029 1.16055V1.9158ZM5.07074 0.808803V0.908803L8.11374 1.16055C8.11416 1.12739 8.10729 1.09448 8.09354 1.06376C8.07978 1.03305 8.05942 1.00515 8.03365 0.981692C8.00788 0.958239 7.97721 0.93971 7.94346 0.927193C7.90971 0.914676 7.87355 0.908423 7.83711 0.908803V0.808803H7.83662H5.07122H5.07074ZM6.91245 11.9122C7.03585 11.7999 7.1072 11.6455 7.1072 11.4822V4.43328C7.1072 4.27002 7.03585 4.11558 6.91245 4.00329C6.78937 3.89129 6.6243 3.82978 6.45392 3.82978C6.28355 3.82978 6.11847 3.89129 5.99539 4.00329C5.872 4.11558 5.80065 4.27002 5.80065 4.43328V11.4822C5.80065 11.6455 5.872 11.7999 5.99539 11.9122C6.11847 12.0242 6.28355 12.0857 6.45392 12.0857C6.6243 12.0857 6.78937 12.0242 6.91245 11.9122Z" fill="#FF6B00" stroke="#FFE2CD" stroke-width="0.2"/>
</g>
<defs>
<clipPath id="clip0_2_881">
<rect width="13" height="14" fill="white"/>
</clipPath>
</defs>
</svg>
