<svg width="15" height="19" viewBox="0 0 15 19" fill="none" xmlns="http://www.w3.org/2000/svg">
<path d="M8 1C6.40928 1.00184 4.88425 1.62329 3.75944 2.72801C2.63463 3.83274 2.00188 5.33054 2.00001 6.89286C1.9981 8.16958 2.42272 9.41167 3.20873 10.4286C3.20873 10.4286 3.37237 10.6402 3.3991 10.6707L8 16L12.6031 10.668C12.6271 10.6396 12.7913 10.4286 12.7913 10.4286L12.7918 10.427C13.5774 9.41051 14.0019 8.169 14 6.89286C13.9981 5.33054 13.3654 3.83274 12.2406 2.72801C11.1158 1.62329 9.59072 1.00184 8 1ZM8 9.03571C7.56848 9.03571 7.14665 8.91004 6.78785 8.67458C6.42905 8.43912 6.1494 8.10445 5.98426 7.71289C5.81913 7.32134 5.77592 6.89048 5.86011 6.47481C5.94429 6.05913 6.15209 5.67731 6.45722 5.37763C6.76236 5.07794 7.15112 4.87386 7.57435 4.79117C7.99758 4.70849 8.43627 4.75093 8.83494 4.91312C9.23362 5.0753 9.57437 5.34996 9.81411 5.70235C10.0539 6.05474 10.1818 6.46904 10.1818 6.89286C10.1811 7.46096 9.95099 8.00559 9.54198 8.4073C9.13297 8.80901 8.57843 9.03501 8 9.03571Z" fill="#FF6B00"/>
</svg>
