<svg width="92" height="56" viewBox="0 0 92 56" fill="none" xmlns="http://www.w3.org/2000/svg">
<path d="M24.5879 19.9702H27.2914C27.9805 19.9702 28.553 19.9927 29.0089 20.0374C29.4648 20.0822 30.0002 20.2221 30.6151 20.4572C31.23 20.6811 31.776 21.0113 32.2531 21.4479C33.3981 22.5002 33.9706 23.9666 33.9706 25.8473C33.9706 27.7279 33.3981 29.1943 32.2531 30.2466C31.8926 30.5824 31.5057 30.8567 31.0922 31.0694C30.6893 31.2821 30.2546 31.4332 29.7881 31.5228C29.3216 31.6123 28.9135 31.6683 28.5636 31.6907C28.2243 31.713 27.8003 31.7243 27.2914 31.7243H24.5879V19.9702ZM26.7984 21.7165V29.9108H27.5935C28.993 29.9108 30.0214 29.5805 30.6787 28.9201C31.336 28.2596 31.6647 27.2242 31.6647 25.8137C31.6647 24.4368 31.336 23.4013 30.6787 22.7073C30.0214 22.0468 28.993 21.7165 27.5935 21.7165H26.7984Z" fill="black"/>
<path d="M38.5378 30.2466C37.6154 29.1384 37.1542 27.6719 37.1542 25.8473C37.1542 24.0226 37.6154 22.5561 38.5378 21.4479C39.5344 20.2613 40.8225 19.668 42.4022 19.668C43.9819 19.668 45.27 20.2613 46.2666 21.4479C47.189 22.5561 47.6502 24.0226 47.6502 25.8473C47.6502 27.6719 47.189 29.1384 46.2666 30.2466C45.27 31.4332 43.9819 32.0265 42.4022 32.0265C40.8225 32.0265 39.5344 31.4332 38.5378 30.2466ZM39.4601 25.8305C39.4601 27.129 39.6669 28.1141 40.0804 28.7858C40.6741 29.6701 41.4481 30.1123 42.4022 30.1123C43.3564 30.1123 44.1303 29.6701 44.724 28.7858C45.1375 28.1141 45.3442 27.129 45.3442 25.8305C45.3442 24.5655 45.1375 23.5804 44.724 22.8751C44.1622 21.9684 43.3881 21.5151 42.4022 21.5151C41.4162 21.5151 40.6423 21.9684 40.0804 22.8751C39.6669 23.5804 39.4601 24.5655 39.4601 25.8305Z" fill="black"/>
<path d="M51.1525 31.7243V25.1252C51.1525 24.5879 51.1578 24.1793 51.1684 23.8995C51.179 23.6084 51.2426 23.1998 51.3593 22.6737C51.4864 22.1363 51.672 21.683 51.9158 21.3136C52.2445 20.8546 52.6739 20.4852 53.204 20.2053C53.7447 19.9143 54.349 19.7576 55.0169 19.7352C56.5648 19.7016 57.6885 20.39 58.3883 21.8006C59.088 20.39 60.2118 19.7016 61.7597 19.7352C63.0956 19.7799 64.1186 20.3061 64.8289 21.3136C65.0728 21.683 65.2583 22.1084 65.3855 22.5897C65.5128 23.0599 65.5816 23.4405 65.5923 23.7315C65.6135 24.0226 65.6241 24.4144 65.6241 24.907C65.6241 25.0077 65.6241 25.0804 65.6241 25.1252V31.7243H63.3659V24.6886C63.3659 24.6439 63.3659 24.5375 63.3659 24.3696C63.3659 24.2017 63.3659 24.0898 63.3659 24.0338C63.3659 23.9778 63.3606 23.8826 63.35 23.7483C63.35 23.6028 63.3446 23.4964 63.3341 23.4293C63.3235 23.3621 63.3075 23.2726 63.2864 23.1607C63.2651 23.0487 63.2333 22.9535 63.1909 22.8751C63.1591 22.7856 63.122 22.6961 63.0796 22.6065C62.7509 21.9796 62.1996 21.6718 61.4257 21.683C60.6942 21.6942 60.1535 22.002 59.8036 22.6065C59.7718 22.6625 59.74 22.724 59.7082 22.7912C59.6764 22.8584 59.6499 22.9199 59.6287 22.9759C59.6075 23.0319 59.5863 23.1046 59.5651 23.1942C59.5545 23.2726 59.5439 23.3341 59.5333 23.3789C59.5227 23.4237 59.5121 23.4964 59.5015 23.5972C59.4909 23.698 59.4803 23.7707 59.4697 23.8155C59.4697 23.849 59.4697 23.9218 59.4697 24.0338C59.4697 24.1345 59.4697 24.2017 59.4697 24.2352C59.4697 24.2688 59.4697 24.3472 59.4697 24.4704C59.4697 24.5935 59.4697 24.6663 59.4697 24.6886V31.7243H57.3069V24.6886C57.3069 24.6663 57.3069 24.5935 57.3069 24.4704C57.3069 24.3472 57.3069 24.2688 57.3069 24.2352C57.3069 24.2017 57.3069 24.1345 57.3069 24.0338C57.3069 23.9218 57.3016 23.849 57.291 23.8155C57.291 23.7707 57.2857 23.698 57.2751 23.5972C57.2645 23.4964 57.2539 23.4237 57.2433 23.3789C57.2327 23.3341 57.2167 23.2726 57.1956 23.1942C57.185 23.1046 57.1691 23.0319 57.1478 22.9759C57.1267 22.9199 57.1001 22.8584 57.0683 22.7912C57.0365 22.724 57.0048 22.6625 56.973 22.6065C56.6231 22.002 56.0823 21.6942 55.3508 21.683C54.5769 21.6718 54.0256 21.9796 53.6969 22.6065C53.6545 22.6961 53.6121 22.7856 53.5697 22.8751C53.5379 22.9535 53.5114 23.0487 53.4902 23.1607C53.469 23.2726 53.4531 23.3621 53.4425 23.4293C53.4319 23.4964 53.4213 23.6028 53.4107 23.7483C53.4107 23.8826 53.4107 23.9778 53.4107 24.0338C53.4107 24.0898 53.4107 24.2017 53.4107 24.3696C53.4107 24.5375 53.4107 24.6439 53.4107 24.6886V31.7243H51.1525Z" fill="black"/>
<path d="M69.6041 19.9702H77.3967V21.7837H71.8147V24.7558H77.1106V26.5693H71.8147V29.8436H77.5554V31.7243H69.6041V19.9702Z" fill="black"/>
<path d="M82.1251 30.2466C81.2026 29.1384 80.7414 27.6719 80.7414 25.8473C80.7414 24.0226 81.2026 22.5561 82.1251 21.4479C83.122 20.2613 84.4103 19.668 85.9899 19.668C87.5695 19.668 88.8578 20.2613 89.8539 21.4479C90.7764 22.5561 91.2376 24.0226 91.2376 25.8473C91.2376 27.6719 90.7764 29.1384 89.8539 30.2466C88.8578 31.4332 87.5695 32.0265 85.9899 32.0265C84.4103 32.0265 83.122 31.4332 82.1251 30.2466ZM83.0475 25.8305C83.0475 27.129 83.2546 28.1141 83.6682 28.7858C84.2613 29.6701 85.0354 30.1123 85.9899 30.1123C86.9436 30.1123 87.7178 29.6701 88.3116 28.7858C88.7251 28.1141 88.9315 27.129 88.9315 25.8305C88.9315 24.5655 88.7251 23.5804 88.3116 22.8751C87.7498 21.9684 86.9756 21.5151 85.9899 21.5151C85.0034 21.5151 84.23 21.9684 83.6682 22.8751C83.2546 23.5804 83.0475 24.5655 83.0475 25.8305Z" fill="black"/>
<path d="M51.1525 25.8305V19.7352L55.0169 19.7352L52.3522 21.3127L51.1525 25.8305Z" fill="black"/>
<path d="M24.5879 19.9702H27.2914C27.9805 19.9702 28.553 19.9927 29.0089 20.0374C29.4648 20.0822 30.0002 20.2221 30.6151 20.4572C31.23 20.6811 31.776 21.0113 32.2531 21.4479C33.3981 22.5002 33.9706 23.9666 33.9706 25.8473C33.9706 27.7279 33.3981 29.1943 32.2531 30.2466C31.8926 30.5824 31.5057 30.8567 31.0922 31.0694C30.6893 31.2821 30.2546 31.4332 29.7881 31.5228C29.3216 31.6123 28.9135 31.6683 28.5636 31.6907C28.2243 31.713 27.8003 31.7243 27.2914 31.7243H24.5879V19.9702ZM26.7984 21.7165V29.9108H27.5935C28.993 29.9108 30.0214 29.5805 30.6787 28.9201C31.336 28.2596 31.6647 27.2242 31.6647 25.8137C31.6647 24.4368 31.336 23.4013 30.6787 22.7073C30.0214 22.0468 28.993 21.7165 27.5935 21.7165H26.7984Z" fill="black"/>
<path d="M38.5378 30.2466C37.6154 29.1384 37.1542 27.6719 37.1542 25.8473C37.1542 24.0226 37.6154 22.5561 38.5378 21.4479C39.5344 20.2613 40.8225 19.668 42.4022 19.668C43.9819 19.668 45.27 20.2613 46.2666 21.4479C47.189 22.5561 47.6502 24.0226 47.6502 25.8473C47.6502 27.6719 47.189 29.1384 46.2666 30.2466C45.27 31.4332 43.9819 32.0265 42.4022 32.0265C40.8225 32.0265 39.5344 31.4332 38.5378 30.2466ZM39.4601 25.8305C39.4601 27.129 39.6669 28.1141 40.0804 28.7858C40.6741 29.6701 41.4481 30.1123 42.4022 30.1123C43.3564 30.1123 44.1303 29.6701 44.724 28.7858C45.1375 28.1141 45.3442 27.129 45.3442 25.8305C45.3442 24.5655 45.1375 23.5804 44.724 22.8751C44.1622 21.9684 43.3881 21.5151 42.4022 21.5151C41.4162 21.5151 40.6423 21.9684 40.0804 22.8751C39.6669 23.5804 39.4601 24.5655 39.4601 25.8305Z" fill="black"/>
<path d="M51.1525 31.7243V25.1252C51.1525 24.5879 51.1578 24.1793 51.1684 23.8995C51.179 23.6084 51.2426 23.1998 51.3593 22.6737C51.4864 22.1363 51.672 21.683 51.9158 21.3136C52.2445 20.8546 52.6739 20.4852 53.204 20.2053C53.7447 19.9143 54.349 19.7576 55.0169 19.7352C56.5648 19.7016 57.6885 20.39 58.3883 21.8006C59.088 20.39 60.2118 19.7016 61.7597 19.7352C63.0956 19.7799 64.1186 20.3061 64.8289 21.3136C65.0728 21.683 65.2583 22.1084 65.3855 22.5897C65.5128 23.0599 65.5816 23.4405 65.5923 23.7315C65.6135 24.0226 65.6241 24.4144 65.6241 24.907C65.6241 25.0077 65.6241 25.0804 65.6241 25.1252V31.7243H63.3659V24.6886C63.3659 24.6439 63.3659 24.5375 63.3659 24.3696C63.3659 24.2017 63.3659 24.0898 63.3659 24.0338C63.3659 23.9778 63.3606 23.8826 63.35 23.7483C63.35 23.6028 63.3446 23.4964 63.3341 23.4293C63.3235 23.3621 63.3075 23.2726 63.2864 23.1607C63.2651 23.0487 63.2333 22.9535 63.1909 22.8751C63.1591 22.7856 63.122 22.6961 63.0796 22.6065C62.7509 21.9796 62.1996 21.6718 61.4257 21.683C60.6942 21.6942 60.1535 22.002 59.8036 22.6065C59.7718 22.6625 59.74 22.724 59.7082 22.7912C59.6764 22.8584 59.6499 22.9199 59.6287 22.9759C59.6075 23.0319 59.5863 23.1046 59.5651 23.1942C59.5545 23.2726 59.5439 23.3341 59.5333 23.3789C59.5227 23.4237 59.5121 23.4964 59.5015 23.5972C59.4909 23.698 59.4803 23.7707 59.4697 23.8155C59.4697 23.849 59.4697 23.9218 59.4697 24.0338C59.4697 24.1345 59.4697 24.2017 59.4697 24.2352C59.4697 24.2688 59.4697 24.3472 59.4697 24.4704C59.4697 24.5935 59.4697 24.6663 59.4697 24.6886V31.7243H57.3069V24.6886C57.3069 24.6663 57.3069 24.5935 57.3069 24.4704C57.3069 24.3472 57.3069 24.2688 57.3069 24.2352C57.3069 24.2017 57.3069 24.1345 57.3069 24.0338C57.3069 23.9218 57.3016 23.849 57.291 23.8155C57.291 23.7707 57.2857 23.698 57.2751 23.5972C57.2645 23.4964 57.2539 23.4237 57.2433 23.3789C57.2327 23.3341 57.2167 23.2726 57.1956 23.1942C57.185 23.1046 57.1691 23.0319 57.1478 22.9759C57.1267 22.9199 57.1001 22.8584 57.0683 22.7912C57.0365 22.724 57.0048 22.6625 56.973 22.6065C56.6231 22.002 56.0823 21.6942 55.3508 21.683C54.5769 21.6718 54.0256 21.9796 53.6969 22.6065C53.6545 22.6961 53.6121 22.7856 53.5697 22.8751C53.5379 22.9535 53.5114 23.0487 53.4902 23.1607C53.469 23.2726 53.4531 23.3621 53.4425 23.4293C53.4319 23.4964 53.4213 23.6028 53.4107 23.7483C53.4107 23.8826 53.4107 23.9778 53.4107 24.0338C53.4107 24.0898 53.4107 24.2017 53.4107 24.3696C53.4107 24.5375 53.4107 24.6439 53.4107 24.6886V31.7243H51.1525Z" fill="black"/>
<path d="M69.6041 19.9702H77.3967V21.7837H71.8147V24.7558H77.1106V26.5693H71.8147V29.8436H77.5554V31.7243H69.6041V19.9702Z" fill="black"/>
<path d="M82.1251 30.2466C81.2026 29.1384 80.7414 27.6719 80.7414 25.8473C80.7414 24.0226 81.2026 22.5561 82.1251 21.4479C83.122 20.2613 84.4103 19.668 85.9899 19.668C87.5695 19.668 88.8578 20.2613 89.8539 21.4479C90.7764 22.5561 91.2376 24.0226 91.2376 25.8473C91.2376 27.6719 90.7764 29.1384 89.8539 30.2466C88.8578 31.4332 87.5695 32.0265 85.9899 32.0265C84.4103 32.0265 83.122 31.4332 82.1251 30.2466ZM83.0475 25.8305C83.0475 27.129 83.2546 28.1141 83.6682 28.7858C84.2613 29.6701 85.0354 30.1123 85.9899 30.1123C86.9436 30.1123 87.7178 29.6701 88.3116 28.7858C88.7251 28.1141 88.9315 27.129 88.9315 25.8305C88.9315 24.5655 88.7251 23.5804 88.3116 22.8751C87.7498 21.9684 86.9756 21.5151 85.9899 21.5151C85.0034 21.5151 84.23 21.9684 83.6682 22.8751C83.2546 23.5804 83.0475 24.5655 83.0475 25.8305Z" fill="black"/>
<path d="M51.1525 25.8305V19.7352L55.0169 19.7352L52.3522 21.3127L51.1525 25.8305Z" fill="black"/>
<mask id="path-2-inside-1_2_72" fill="white">
<path d="M52.1567 16.1279V0H0V55.4644H52.1567V34.6161"/>
</mask>
<path d="M52.1567 0H55.1946V-3.03795H52.1567V0ZM0 0V-3.03795H-3.03795V0H0ZM0 55.4644H-3.03795V58.5023H0V55.4644ZM52.1567 55.4644V58.5023H55.1946V55.4644H52.1567ZM55.1946 16.1279V0H49.1188V16.1279H55.1946ZM52.1567 -3.03795H0V3.03795H52.1567V-3.03795ZM-3.03795 0V55.4644H3.03795V0H-3.03795ZM0 58.5023H52.1567V52.4264H0V58.5023ZM55.1946 55.4644V34.6161H49.1188V55.4644H55.1946Z" fill="#FFD800" mask="url(#path-2-inside-1_2_72)"/>
</svg>
