<svg width="48" height="46" viewBox="0 0 48 46" fill="none" xmlns="http://www.w3.org/2000/svg">
<g clip-path="url(#clip0_2_877)">
<circle cx="22.3385" cy="24.1135" r="25.3125" transform="rotate(177.19 22.3385 24.1135)" fill="#FF6B00"/>
<path d="M4.47422 9.78441C3.68767 9.82301 3.02727 10.137 2.49302 10.7264C1.95877 11.3158 1.71094 12.0038 1.74954 12.7903C1.78814 13.5769 2.10214 14.2373 2.69154 14.7715C3.28094 15.3058 3.96891 15.5536 4.75547 15.515C5.54202 15.4764 6.20242 15.1624 6.73667 14.573C7.27092 13.9836 7.51875 13.2956 7.48015 12.5091C7.44155 11.7225 7.12755 11.0621 6.53815 10.5279C5.94875 9.99363 5.26078 9.74581 4.47422 9.78441ZM29.1617 13.6414C28.6561 13.6662 28.207 13.4202 27.8144 12.9033C27.4242 12.3886 27.2057 11.6537 27.1588 10.6986C27.1119 9.74345 27.1802 8.83902 27.3635 7.98525C27.5469 7.13149 27.6152 6.22706 27.5683 5.27196C27.5269 4.42922 27.2396 3.73935 26.7064 3.20234C26.1732 2.66533 25.4571 2.41888 24.5582 2.463C23.6593 2.50712 22.9708 2.8225 22.4928 3.40913C22.0147 3.99577 21.7963 4.71046 21.8377 5.5532C21.8901 6.62066 22.1069 7.59558 22.4881 8.47796C22.8693 9.36033 23.0861 10.3353 23.1385 11.4027C23.1854 12.3578 23.0093 13.0851 22.6103 13.5845C22.2134 14.0815 21.7622 14.3425 21.2565 14.3673C20.7509 14.3921 20.2692 14.3313 19.8115 14.1848C19.3537 14.0383 18.6925 13.761 17.8277 13.3529C16.6737 12.79 15.7108 12.4014 14.9388 12.187C14.169 11.9702 13.5313 11.8742 13.0257 11.899C11.8458 11.9569 10.9255 12.438 10.2648 13.3422C9.60646 14.2486 9.30072 15.1793 9.3476 16.1344C9.3862 16.921 9.69744 17.5252 10.2813 17.9471C10.8652 18.369 11.73 18.7771 12.8757 19.1714C13.8473 19.4616 14.5516 19.7649 14.9884 20.0814C15.4274 20.3978 15.6579 20.7807 15.68 21.2301C15.7048 21.7358 15.3715 22.1047 14.68 22.3369C13.9862 22.5669 12.6589 22.7863 10.698 22.9952C9.01807 23.1903 7.70881 23.4798 6.77025 23.8638C5.8317 24.2478 5.38723 24.9454 5.43686 25.9567C5.48374 26.9118 5.79206 27.7549 6.36184 28.4861C6.93397 29.2194 7.64141 29.5654 8.48414 29.5241C8.87742 29.5048 9.87492 29.1742 11.4766 28.5324C12.0809 28.2212 12.5495 28.0157 12.8825 27.916C13.2154 27.8141 13.5223 27.7562 13.8032 27.7425C14.2527 27.7204 14.6255 27.8575 14.9216 28.1539C15.2176 28.448 15.378 28.8478 15.4028 29.3535C15.4414 30.14 15.1114 30.8748 14.4128 31.5579C13.7141 32.2387 12.3207 33.1091 10.2327 34.169C7.97883 35.2933 6.49142 36.2674 5.77043 37.0912C5.0517 37.9149 4.71163 38.7201 4.75023 39.5066C4.80538 40.6303 5.35268 41.7297 6.39214 42.8051C7.42935 43.8805 8.36933 44.3976 9.21206 44.3562C9.99862 44.3176 10.7246 43.9159 11.3899 43.1512C12.0574 42.3863 13.1479 40.784 14.6614 38.3444C15.7051 36.6599 16.6193 35.5034 17.4039 34.8747C18.1907 34.2436 19.0054 33.9074 19.8481 33.866C20.6347 33.8274 21.4083 34.0992 22.169 34.6813C22.9297 35.2635 23.7447 36.378 24.614 38.0249C25.3626 39.5087 26.0202 40.5611 26.5869 41.1821C27.1511 41.8009 27.8546 42.0897 28.6974 42.0483C29.7086 41.9987 30.5411 41.7472 31.1946 41.2939C31.8481 40.8383 32.1624 40.3577 32.1376 39.852C32.1128 39.3464 31.493 38.1941 30.2784 36.3953C29.7342 35.6335 29.3535 35.0609 29.1364 34.6773C28.9216 34.2936 28.8032 33.8771 28.7811 33.4276C28.7591 32.9781 29.0072 32.5717 29.5255 32.2084C30.0416 31.8452 30.5524 31.6511 31.0581 31.6263C31.6761 31.596 32.2736 31.7221 32.8507 32.0047C33.4276 32.285 34.217 32.8792 35.219 33.7875C36.2772 34.6929 37.0386 35.2897 37.5033 35.5778C37.9678 35.8636 38.5372 35.99 39.2114 35.9569C40.0541 35.9155 40.7555 35.586 41.3153 34.9683C41.8774 34.3483 42.1432 33.7292 42.1129 33.1112C42.0964 32.7741 42.0243 32.4544 41.8969 32.152C41.7693 31.8474 41.5245 31.4506 41.1626 30.9615C40.8007 30.4724 40.5266 30.0499 40.3401 29.6941C40.1536 29.3361 40.0521 28.9885 40.0355 28.6514C40.0107 28.1458 40.2162 27.7415 40.6518 27.4385C41.0875 27.1356 41.6917 26.8243 42.4645 26.5048C43.403 26.1208 44.0458 25.7232 44.3928 25.312C44.7376 24.9008 44.8934 24.3582 44.8603 23.684C44.8383 23.2345 44.7433 22.7458 44.5755 22.2179C44.41 21.6921 44.1238 21.2985 43.7167 21.0368C43.1328 20.615 42.4181 20.3966 41.5727 20.3818C40.7272 20.367 39.9673 20.3761 39.2931 20.4092C38.0009 20.4726 37.16 20.2751 36.7703 19.8166C36.3827 19.3558 36.1655 18.6479 36.1187 17.6928C36.0856 17.0186 36.1929 16.3375 36.4408 15.6495C36.6886 14.9615 37.1303 14.2077 37.7659 13.3881C38.5111 12.5068 38.9597 11.8934 39.1117 11.548C39.2637 11.2027 39.3328 10.8895 39.319 10.6086C39.2804 9.82207 38.8981 9.19317 38.1721 8.72194C37.4439 8.25082 36.7708 8.03043 36.1528 8.06076C35.4786 8.09385 34.8561 8.30687 34.2851 8.69983C33.7121 9.09514 32.9769 9.90615 32.0798 11.1329C31.2866 12.1855 30.7138 12.8613 30.3613 13.1602C30.011 13.4589 29.6112 13.6194 29.1617 13.6414ZM58.4186 -3.00021L61.0656 50.9349L43.7053 51.7869L37.7999 58.8348L17.5742 59.8274L11.0071 53.3916L-6.35324 54.2436L-9.00021 0.308508L58.4186 -3.00021Z" fill="#FFFAF6"/>
</g>
<defs>
<clipPath id="clip0_2_877">
<rect width="48" height="46" fill="white"/>
</clipPath>
</defs>
</svg>
