<svg width="19" height="19" viewBox="0 0 19 19" fill="none" xmlns="http://www.w3.org/2000/svg">
<path d="M14.6458 3.16602H4.35417C3.91694 3.16602 3.5625 3.52046 3.5625 3.95768V16.6243C3.5625 17.0616 3.91694 17.416 4.35417 17.416H14.6458C15.0831 17.416 15.4375 17.0616 15.4375 16.6243V3.95768C15.4375 3.52046 15.0831 3.16602 14.6458 3.16602Z" fill="#FF6B00" stroke="#FF6B00" stroke-linejoin="round"/>
<path d="M7.12467 1.58301V3.95801V1.58301ZM11.8747 1.58301V3.95801V1.58301ZM6.33301 7.52051H12.6663H6.33301ZM6.33301 10.6872H11.083H6.33301ZM6.33301 13.8538H9.49967H6.33301Z" fill="#8E9ED7"/>
<path d="M6.33301 13.8538H9.49967M7.12467 1.58301V3.95801V1.58301ZM11.8747 1.58301V3.95801V1.58301ZM6.33301 7.52051H12.6663H6.33301ZM6.33301 10.6872H11.083H6.33301Z" stroke="white" stroke-linecap="round" stroke-linejoin="round"/>
</svg>
