<svg width="30" height="48" viewBox="0 0 30 48" fill="none" xmlns="http://www.w3.org/2000/svg">
<g opacity="0.5">
<mask id="path-1-inside-1_2_234" fill="white">
<path d="M1.67085 46.7465L2.87277 46.2432L4.34265 45.5805C4.8631 45.3212 5.44474 45.0619 6.03153 44.7462C6.34414 44.5868 6.66384 44.4184 6.99063 44.2409C6.98741 44.2078 6.98354 44.1657 6.97903 44.1162C6.9713 44.0553 6.97259 43.9811 6.96873 43.9034C6.91225 43.9032 6.85625 43.8955 6.80319 43.8806C6.50876 43.7952 6.23507 43.6724 5.99353 43.5174C5.73637 43.3596 5.50726 43.1766 5.31205 42.973C4.65054 42.3297 4.25956 41.3602 4.08822 40.175C4.08178 40.1354 4.07534 40.0963 4.07019 40.0567C3.93621 38.9066 4.66858 37.806 5.18516 37.0068C5.38935 36.7178 5.56583 36.4679 5.71785 36.2645C5.92203 35.9908 6.08048 35.8023 6.20094 35.7201C6.23255 35.6925 6.27639 35.6749 6.32396 35.6706C6.50496 35.6622 6.90753 35.8933 7.28563 36.2991C7.43711 36.4638 7.56924 36.6386 7.68048 36.8212C8.15648 37.5428 8.41542 38.5533 8.55133 39.6371C8.55519 39.6782 8.55906 39.7187 8.56163 39.7598C8.63442 40.7991 8.20801 41.7938 7.88338 42.541C7.78032 42.7573 7.69014 42.9528 7.59803 43.1235C7.40479 43.4927 7.2457 43.748 7.08982 43.8529C7.08982 43.8673 7.09497 43.8811 7.09691 43.895C7.11108 43.9707 7.12009 44.04 7.13684 44.1009C7.14135 44.1197 7.14521 44.137 7.14908 44.1538C8.0225 43.6743 8.93651 43.1314 9.87306 42.5207C10.7561 41.9462 11.6553 41.3098 12.5462 40.611C12.5389 40.5853 12.5305 40.5561 12.521 40.5234C12.5024 40.464 12.4895 40.3903 12.4714 40.3141C12.4157 40.3205 12.359 40.319 12.304 40.3096C11.9965 40.2576 11.7025 40.1663 11.4344 40.0394C11.1517 39.912 10.8919 39.7568 10.6615 39.5777C9.88852 39.014 9.31912 38.0975 8.92685 36.9435C8.91332 36.9054 8.8998 36.8668 8.88691 36.8282C8.53909 35.7053 9.05825 34.5349 9.42089 33.6872C9.56903 33.3789 9.69657 33.1116 9.80736 32.8954C9.95744 32.6019 10.0798 32.4005 10.1835 32.3015C10.2101 32.2715 10.2503 32.2501 10.2962 32.2416C10.474 32.2134 10.9152 32.3975 11.3655 32.7578C11.5463 32.9034 11.7101 33.0608 11.855 33.2284C12.4605 33.8901 12.9049 34.8615 13.2424 35.9196C13.254 35.9597 13.2656 35.9997 13.2759 36.0393C13.5413 37.0593 13.3062 38.0916 13.1239 38.8666C13.0595 39.0922 13.0061 39.2961 12.9507 39.4748C12.8309 39.8608 12.7188 40.1315 12.5835 40.2527L12.599 40.2938C12.6273 40.3665 12.6492 40.4338 12.6769 40.4917C12.6769 40.4967 12.6808 40.5016 12.6834 40.5066C13.1046 40.173 13.5229 39.8251 13.9381 39.4629C15.1492 38.3988 16.2509 37.2641 17.2334 36.069L17.2031 36.0111C17.1716 35.9547 17.1432 35.8839 17.1091 35.8132C17.0554 35.8263 16.9992 35.832 16.9429 35.83C16.6263 35.8168 16.3149 35.7626 16.0218 35.6697C15.7148 35.5799 15.4244 35.4596 15.1581 35.3119C14.273 34.8531 13.5175 34.0207 12.8843 32.9315C12.8624 32.8959 12.8405 32.8597 12.8199 32.8231C12.2402 31.7586 12.4978 30.5398 12.6763 29.6559C12.7568 29.3333 12.8257 29.0541 12.8901 28.825C12.9758 28.5162 13.0531 28.2995 13.1349 28.1931C13.1545 28.1599 13.1897 28.1335 13.2334 28.1193C13.4028 28.0698 13.8776 28.1955 14.398 28.4939C14.6078 28.6145 14.8031 28.7494 14.9816 28.8968C15.7204 29.4733 16.3658 30.3735 16.9242 31.3766C16.9442 31.4142 16.9642 31.4528 16.9828 31.4909C17.4627 32.4629 17.4505 33.5105 17.437 34.2989C17.4241 34.5285 17.4125 34.7368 17.3957 34.9204C17.3603 35.3163 17.3068 35.5974 17.2025 35.734C17.2109 35.7469 17.2186 35.7597 17.2263 35.7721C17.2656 35.834 17.2985 35.8919 17.3339 35.9423C17.4473 35.8021 17.5598 35.6612 17.6714 35.5197C18.2324 34.7908 18.7568 34.0286 19.2431 33.2408C19.7178 32.449 20.1519 31.63 20.5313 30.7892C20.5435 30.762 20.5551 30.7347 20.5667 30.7075L20.5274 30.6615C20.4817 30.612 20.4347 30.5462 20.3819 30.4799C20.3331 30.5015 20.2796 30.516 20.2241 30.5229C19.9128 30.5595 19.5959 30.5558 19.2862 30.5121C18.9616 30.4722 18.6452 30.3999 18.3452 30.2968C17.3577 29.986 16.3973 29.2897 15.4885 28.3222C15.4576 28.2906 15.4241 28.2589 15.397 28.2262C14.5442 27.2756 14.4779 26.0408 14.4167 25.1491C14.4096 24.8205 14.4038 24.5364 14.4057 24.3023C14.4057 23.9861 14.4257 23.7624 14.4779 23.6447C14.4883 23.6093 14.5157 23.5782 14.5545 23.5576C14.7072 23.4818 15.2051 23.5308 15.7944 23.7416C16.0318 23.8269 16.2588 23.9283 16.4727 24.0445C17.3487 24.4934 18.2196 25.2733 19.0324 26.168C19.0621 26.2022 19.0917 26.2363 19.12 26.271C19.8479 27.1474 20.1133 28.1752 20.3091 28.9492C20.3574 29.1759 20.4012 29.3818 20.4334 29.5639C20.5036 29.9568 20.5261 30.2409 20.4572 30.3913L20.4907 30.425C20.5416 30.4744 20.5867 30.5239 20.6311 30.566C21.3437 28.932 21.84 27.247 22.1126 25.5366C22.1556 25.2528 22.1933 24.9688 22.226 24.6844L22.0695 24.5607C22.0173 24.5211 21.96 24.4681 21.8975 24.4147C21.8578 24.4406 21.8124 24.4609 21.7635 24.4746C21.4891 24.5483 21.2007 24.5864 20.91 24.5874C20.6066 24.5935 20.3034 24.5691 20.0083 24.5146C19.0421 24.3617 18.0167 23.8555 16.9809 23.0963C16.9455 23.0721 16.9107 23.0468 16.8766 23.0211C15.8924 22.2699 15.5581 21.1579 15.3056 20.3567C15.2263 20.0598 15.1574 19.8024 15.1085 19.5896C15.0402 19.3026 15.0067 19.0972 15.0279 18.9834C15.0294 18.9499 15.0474 18.9181 15.0782 18.8943C15.1999 18.8057 15.6624 18.785 16.244 18.8993C16.4772 18.9458 16.7045 19.0079 16.9236 19.0849C17.8183 19.3778 18.7812 19.9722 19.7171 20.6774C19.7513 20.7041 19.7854 20.7318 19.8189 20.7595C20.6737 21.4603 21.1426 22.3575 21.4936 23.036C21.5883 23.2339 21.6727 23.4165 21.7429 23.5778C21.8936 23.9243 21.9767 24.1801 21.9471 24.3256L21.9851 24.3518C22.0534 24.3988 22.1139 24.4434 22.1725 24.479L22.2472 24.5285C22.3978 23.0675 22.4058 21.5999 22.2711 20.138C22.2281 19.6431 22.1663 19.1522 22.0856 18.6652L21.9213 18.59C21.8569 18.5633 21.7886 18.5252 21.7133 18.4875C21.6844 18.5194 21.6484 18.547 21.607 18.5692C21.3762 18.6911 21.1203 18.7823 20.8501 18.8389C20.5697 18.9032 20.2795 18.939 19.987 18.9453C19.0382 18.9889 17.9175 18.7157 16.702 18.2089C16.6614 18.1931 16.6209 18.1763 16.5803 18.1594C15.4209 17.6502 14.7439 16.6788 14.2466 15.982C14.0759 15.7207 13.9284 15.4945 13.8125 15.306C13.6553 15.0521 13.5548 14.867 13.5394 14.7572C13.5299 14.7257 13.5364 14.6926 13.5574 14.6646C13.6418 14.5582 14.0656 14.4498 14.6447 14.4444C14.878 14.4424 15.111 14.4565 15.341 14.4865C16.2692 14.5854 17.3597 14.9541 18.4617 15.4302C18.503 15.4485 18.5435 15.4678 18.5841 15.4866C19.6083 15.9746 20.3381 16.7198 20.8843 17.2825C21.0376 17.4508 21.1754 17.6027 21.2933 17.7393C21.5471 18.0337 21.7081 18.2549 21.7281 18.396L21.7719 18.4133C21.8511 18.444 21.922 18.4737 21.9883 18.4955L22.0637 18.5222C21.8648 17.3245 21.5675 16.1378 21.1735 14.969C20.9751 14.382 20.7559 13.8078 20.5158 13.2463L20.4392 13.2191C20.3748 13.1973 20.2994 13.1647 20.2189 13.1335C20.1946 13.1673 20.1625 13.1975 20.1242 13.2226C19.9111 13.3622 19.6687 13.4732 19.4073 13.5507C19.137 13.6369 18.8531 13.6953 18.5629 13.7244C17.625 13.8426 16.4734 13.659 15.1967 13.2508C15.1542 13.2384 15.1117 13.2245 15.0679 13.2107C13.8441 12.7955 13.0441 11.8824 12.456 11.2277C12.2512 10.9803 12.074 10.768 11.9336 10.5898C11.7436 10.3493 11.6212 10.1731 11.589 10.0652C11.5754 10.0346 11.5774 10.0012 11.5948 9.97171C11.6644 9.85937 12.0714 9.71833 12.6466 9.66686C12.8784 9.64664 13.1121 9.64233 13.3449 9.654C14.2814 9.68023 15.4157 9.96033 16.5758 10.3468C16.6189 10.3617 16.6621 10.3775 16.7046 10.3933C17.7886 10.7977 18.6144 11.4821 19.2321 11.9982C19.4067 12.1536 19.5645 12.2952 19.7004 12.4204C19.9915 12.6935 20.1809 12.9004 20.2202 13.0394L20.2666 13.0528C20.3355 13.0736 20.3954 13.0929 20.4598 13.1082C20.0517 12.166 19.5809 11.2405 19.0492 10.3354C18.5146 9.4214 17.9381 8.56081 17.3423 7.75713L17.1574 7.72843C17.093 7.72051 17.0234 7.70418 16.9468 7.69033C16.9354 7.72319 16.9164 7.7542 16.8907 7.78188C16.7454 7.93421 16.568 8.06684 16.3658 8.17432C16.1584 8.29052 15.9318 8.38504 15.692 8.45541C14.9236 8.70284 13.8924 8.72907 12.6943 8.5816C12.655 8.57764 12.6151 8.57319 12.5751 8.56774C11.4202 8.40592 10.494 7.75367 9.81767 7.28799C9.57741 7.10984 9.36678 6.95593 9.20189 6.82528C8.97516 6.65059 8.82379 6.51994 8.76775 6.43285C8.74788 6.40873 8.74052 6.37977 8.74714 6.35169C8.77677 6.24529 9.08723 6.0607 9.56388 5.92659C9.75599 5.87242 9.95412 5.83184 10.1558 5.80534C10.9616 5.68014 12.0038 5.74002 13.0969 5.88749L13.2193 5.90679C14.2499 6.08099 15.1387 6.53479 15.8035 6.87823C15.9967 6.98265 16.1661 7.07618 16.3155 7.16427C16.6376 7.35134 16.854 7.49831 16.9242 7.60966L16.9674 7.61412C17.0447 7.62203 17.1142 7.63094 17.1774 7.63391L17.2553 7.63935C16.9506 7.23257 16.6415 6.83864 16.3304 6.46204C15.741 5.74942 15.1465 5.0942 14.5629 4.49392C14.4218 4.54341 14.1017 4.50283 13.6611 4.39494C13.4838 4.35238 13.2884 4.29976 13.075 4.23708C12.351 4.01141 11.4486 3.6655 10.78 3.06719C10.7542 3.04294 10.7278 3.0177 10.702 2.99543C10.0341 2.3422 9.45309 1.69688 9.12653 1.14707C9.04199 1.01286 8.9703 0.874088 8.91203 0.731867C8.76968 0.385454 8.76389 0.117726 8.85986 0.0425044C8.88701 0.022386 8.92268 0.0104419 8.96034 0.00885279C9.08917 -0.00896276 9.33007 0.000439891 9.6547 0.0340915C9.89625 0.0573507 10.1835 0.0949613 10.5075 0.143954C11.3809 0.299345 12.5249 0.555197 13.236 1.24357C13.2605 1.26732 13.2843 1.29306 13.3075 1.31533C14.0251 2.04032 14.5088 2.72424 14.6737 3.32502C14.7313 3.50675 14.7597 3.69323 14.7581 3.88027C14.7632 4.05554 14.7279 4.23013 14.6537 4.39593C14.6462 4.41056 14.6374 4.42478 14.6273 4.43849C15.2244 5.03779 15.8337 5.6935 16.4379 6.40711C16.7754 6.80549 17.111 7.22267 17.4415 7.65519C17.4415 7.64876 17.446 7.64232 17.4492 7.6349C17.4679 7.58888 17.4827 7.53592 17.5014 7.47753C17.5014 7.46714 17.5078 7.45625 17.511 7.44536C17.4009 7.3543 17.301 7.14596 17.189 6.84755C17.1374 6.70948 17.0853 6.55063 17.0273 6.37742C16.8521 5.77664 16.6241 4.97692 16.7877 4.17472C16.7941 4.14305 16.8006 4.11138 16.8083 4.07971C17.026 3.24386 17.3313 2.47581 17.7745 1.94432C17.8801 1.80971 18.0012 1.68268 18.1365 1.56474C18.4721 1.27178 18.8089 1.11936 18.9487 1.1342C18.9848 1.13984 19.0169 1.15553 19.0389 1.17825C19.1239 1.2505 19.2282 1.40589 19.3609 1.63155C19.4582 1.79882 19.5696 2.00419 19.6978 2.24075C20.0199 2.89349 20.4708 3.79367 20.2492 4.679C20.2414 4.70919 20.2331 4.73938 20.2234 4.76957C19.9658 5.68113 19.5632 6.41008 18.9822 6.86982C18.8097 7.01594 18.6128 7.14391 18.3967 7.25038C18.1929 7.35603 17.9676 7.43481 17.73 7.48347C17.688 7.49165 17.6443 7.494 17.6012 7.4904C17.5909 7.55028 17.5832 7.60867 17.5716 7.65519C17.5587 7.71161 17.5484 7.75664 17.5419 7.78386C18.1281 8.56081 18.6969 9.39072 19.2276 10.2716C19.7969 11.2165 20.3002 12.184 20.7355 13.1701C20.7373 13.1675 20.7388 13.1649 20.74 13.1622C20.769 13.1127 20.7941 13.0528 20.825 12.989C20.8302 12.9771 20.836 12.9657 20.8418 12.9538C20.731 12.84 20.653 12.5941 20.5777 12.2452C20.5423 12.0833 20.5088 11.8988 20.4714 11.6964C20.3716 10.9991 20.2447 10.0717 20.5616 9.17793C20.5738 9.14328 20.5873 9.10765 20.6009 9.07301C20.9873 8.14759 21.4569 7.3068 22.0476 6.74709C22.1892 6.60452 22.3472 6.47202 22.5197 6.35119C22.9487 6.05426 23.3571 5.90976 23.5104 5.94341C23.5509 5.95274 23.5852 5.97364 23.6063 6.00181C23.6907 6.09089 23.7828 6.27795 23.893 6.54617C23.9754 6.74412 24.0682 6.9876 24.1751 7.2682C24.4327 8.03922 24.7973 9.1032 24.3992 10.084C24.3851 10.1177 24.3703 10.1513 24.3548 10.183C23.9149 11.1901 23.3364 11.9769 22.6034 12.4416C22.3839 12.5919 22.1394 12.719 21.8762 12.8197C21.6283 12.9194 21.3602 12.9863 21.0833 13.0177C21.0336 13.0232 20.983 13.0218 20.9339 13.0137C20.9113 13.081 20.8939 13.1458 20.8727 13.1978C20.845 13.2701 20.8237 13.3255 20.8134 13.3532C21.0331 13.8614 21.2392 14.3796 21.426 14.9091C21.8445 16.0964 22.1638 17.3031 22.3819 18.5217C22.4173 18.4875 22.4527 18.4504 22.4926 18.4103L22.5223 18.3802C22.4579 18.2465 22.4785 17.9937 22.5384 17.6438C22.5667 17.481 22.6028 17.2974 22.6459 17.0955C22.816 16.4091 23.0466 15.4921 23.6868 14.7102C23.712 14.679 23.7384 14.6483 23.7641 14.6181C24.4862 13.8189 25.2566 13.1211 26.0347 12.7207C26.2244 12.6166 26.4257 12.5255 26.6363 12.4486C27.1599 12.259 27.6024 12.2135 27.739 12.2808C27.774 12.2981 27.7992 12.325 27.8092 12.356C27.8569 12.4609 27.8736 12.6599 27.8775 12.941C27.8807 13.1493 27.8775 13.4027 27.8723 13.6952C27.8227 14.4894 27.7706 15.5895 27.0163 16.4388C26.9899 16.4675 26.9628 16.4962 26.9351 16.5244C26.1319 17.3889 25.2804 18.012 24.4025 18.2916C24.1358 18.3848 23.8543 18.4504 23.5651 18.4866C23.2889 18.5266 23.0059 18.531 22.7277 18.4994C22.6781 18.4933 22.6303 18.4804 22.5867 18.4613C22.5397 18.5202 22.4984 18.5786 22.4579 18.6231C22.4392 18.6444 22.4231 18.6637 22.4083 18.6815C22.4894 19.1546 22.5558 19.6319 22.6073 20.1132C22.7633 21.5672 22.7796 23.0281 22.6563 24.484L22.7271 24.4345L22.7651 24.4082C22.7355 24.2628 22.8192 24.0079 22.9699 23.6605C23.0395 23.4992 23.1245 23.3185 23.2186 23.1186C23.5677 22.4416 24.0366 21.5444 24.8933 20.8422C24.9268 20.8149 24.9577 20.7877 24.995 20.761C25.9316 20.0553 26.8946 19.461 27.7886 19.168C28.0085 19.0907 28.2367 19.0283 28.4707 18.9814C29.0504 18.8671 29.5148 18.8879 29.6366 18.9765C29.6676 19.0002 29.6858 19.032 29.6875 19.0656C29.7081 19.1794 29.6752 19.3848 29.6069 19.6718C29.5535 19.8856 29.4839 20.1439 29.406 20.4408C29.1528 21.242 28.8185 22.354 27.835 23.1052C27.8002 23.1305 27.7654 23.1547 27.7306 23.1805C26.6917 23.9396 25.6656 24.4459 24.7033 24.5988C24.4081 24.6531 24.1049 24.6776 23.8015 24.6715C23.511 24.6707 23.2227 24.6324 22.9487 24.5582C22.8996 24.5447 22.854 24.5246 22.8141 24.4988C22.7496 24.5513 22.6962 24.6037 22.644 24.6428C22.6148 24.9536 22.579 25.2641 22.5364 25.5742C22.2888 27.2928 21.8189 28.9882 21.1336 30.6353L21.1812 30.613C21.1896 30.4537 21.348 30.1968 21.6031 29.8519C21.7216 29.6915 21.8608 29.5134 22.0166 29.3164C22.5725 28.6538 23.3165 27.7759 24.416 27.1697C24.4591 27.1459 24.5029 27.1202 24.5448 27.0994C25.7326 26.5016 26.9184 26.0255 27.9483 25.8592C28.2021 25.8125 28.4608 25.7831 28.7213 25.7711C29.3706 25.7439 29.8569 25.8409 29.9619 25.9547C29.9902 25.9835 30.0035 26.0193 29.9992 26.0552C29.9908 26.1789 29.8987 26.3917 29.748 26.6857C29.6366 26.9034 29.4904 27.1657 29.328 27.4691C28.8398 28.2792 28.1802 29.4065 26.9287 30.0454C26.8855 30.0672 26.8417 30.0879 26.7999 30.1087C25.4878 30.7471 24.2588 31.1193 23.1928 31.1252C22.8646 31.1355 22.536 31.1124 22.2157 31.0564C21.9071 31.0083 21.6111 30.9212 21.3397 30.7986C21.2916 30.7761 21.2491 30.7473 21.2141 30.7135C21.1632 30.7422 21.1155 30.7714 21.0704 30.7971C21.0537 30.8362 21.0376 30.8758 21.0208 30.9149C20.646 31.7715 20.2183 32.6069 19.7481 33.4165C19.2669 34.2221 18.7452 35.0001 18.1854 35.7488C18.0746 35.8947 17.9626 36.039 17.8492 36.1819L17.8917 36.1705L17.9432 36.1556C17.9922 36.0007 18.2125 35.7721 18.55 35.4722C18.7065 35.3326 18.8888 35.1782 19.0904 35.0085C19.8034 34.4414 20.7555 33.6911 21.9889 33.2606C22.0373 33.2433 22.0862 33.2269 22.1352 33.2111C23.4511 32.8013 24.7348 32.5114 25.7873 32.5019C26.049 32.4937 26.3112 32.5036 26.5706 32.5316C27.2147 32.6014 27.6656 32.7687 27.7409 32.8959C27.7583 32.9297 27.7583 32.9674 27.7409 33.0013C27.701 33.1215 27.5574 33.317 27.3351 33.5823C27.1709 33.7802 26.9641 34.0158 26.7252 34.288C26.0417 35.0105 25.1103 36.02 23.721 36.458C23.6727 36.4728 23.6244 36.4867 23.5761 36.5006C22.1281 36.9311 20.8289 37.1132 19.7803 36.9598C19.4556 36.9207 19.1391 36.8491 18.8386 36.747C18.5482 36.6535 18.2801 36.5238 18.045 36.363C18.0031 36.3339 17.9684 36.2992 17.9426 36.2605C17.8634 36.2892 17.7893 36.3194 17.7223 36.3417C16.748 37.5562 15.6529 38.7111 14.447 39.7959C13.9883 40.2064 13.5248 40.5991 13.0563 40.9742L13.1935 40.9638L13.2489 40.9594C13.3455 40.8184 13.6315 40.6377 14.054 40.4101C14.2473 40.3042 14.4753 40.1889 14.7246 40.0637C15.5883 39.647 16.7497 39.0977 18.083 38.9096L18.2408 38.8888C19.6469 38.7404 20.9835 38.6968 22.0083 38.8844C22.2646 38.9257 22.5157 38.9843 22.7587 39.0596C23.3577 39.2461 23.7435 39.4936 23.7757 39.6321C23.7825 39.6681 23.7713 39.7048 23.7442 39.7346C23.6675 39.8439 23.4659 40.0063 23.1645 40.222C22.9422 40.3829 22.6672 40.5729 22.349 40.7926C21.4569 41.3652 20.2344 42.1684 18.7477 42.3356C18.6962 42.3411 18.6453 42.345 18.5938 42.349C17.0531 42.4975 15.7352 42.4297 14.7664 42.0852C14.4639 41.9868 14.1795 41.8582 13.9207 41.7027C13.6685 41.5577 13.4494 41.3816 13.2721 41.1816C13.2415 41.1455 13.2197 41.1054 13.2077 41.0633C13.1085 41.0787 13.0144 41.0965 12.9358 41.1049L12.8805 41.1118C12.0373 41.7804 11.1884 42.3931 10.3529 42.9498C9.37451 43.601 8.42122 44.1796 7.51301 44.6898L7.53555 44.6927C7.61542 44.7036 7.7056 44.7096 7.80415 44.7185L7.85954 44.7234C7.99288 44.6012 8.32138 44.471 8.79738 44.3171C9.01767 44.2454 9.27016 44.1687 9.54907 44.085C10.5152 43.8193 11.8035 43.4704 13.1561 43.5036C13.2096 43.5036 13.2631 43.5065 13.3159 43.5095C14.7329 43.5897 16.0502 43.7668 16.9996 44.1162C17.2385 44.1985 17.4676 44.2967 17.6843 44.4097C18.2215 44.6913 18.5307 44.9956 18.5216 45.1347C18.518 45.1709 18.4971 45.2049 18.463 45.2302C18.358 45.3247 18.1165 45.4504 17.7642 45.6127C17.5065 45.734 17.1845 45.875 16.8102 46.0383C15.7796 46.453 14.3626 47.0394 12.8656 46.9608C12.8141 46.9578 12.7626 46.9538 12.7117 46.9499C11.1658 46.843 9.89496 46.5634 9.04021 46.0695C8.77162 45.9239 8.52908 45.7519 8.3188 45.5578C8.11209 45.3754 7.94642 45.1679 7.82862 44.9436C7.80814 44.9034 7.79723 44.8607 7.79642 44.8175C7.69529 44.8175 7.59803 44.8175 7.5188 44.814L7.30431 44.8061C7.02412 44.961 6.74715 45.1099 6.47662 45.2515C5.88403 45.5786 5.29788 45.8453 4.77228 46.1155L3.28758 46.8034L2.06376 47.3299C1.70756 47.4829 1.40225 47.5967 1.15619 47.6976L0.399353 48L0 47.4012L0.761347 47.1043C1.00805 47.0063 1.32109 46.8925 1.67085 46.7465Z"/>
</mask>
<path d="M1.67085 46.7465L2.87277 46.2432L4.34265 45.5805C4.8631 45.3212 5.44474 45.0619 6.03153 44.7462C6.34414 44.5868 6.66384 44.4184 6.99063 44.2409C6.98741 44.2078 6.98354 44.1657 6.97903 44.1162C6.9713 44.0553 6.97259 43.9811 6.96873 43.9034C6.91225 43.9032 6.85625 43.8955 6.80319 43.8806C6.50876 43.7952 6.23507 43.6724 5.99353 43.5174C5.73637 43.3596 5.50726 43.1766 5.31205 42.973C4.65054 42.3297 4.25956 41.3602 4.08822 40.175C4.08178 40.1354 4.07534 40.0963 4.07019 40.0567C3.93621 38.9066 4.66858 37.806 5.18516 37.0068C5.38935 36.7178 5.56583 36.4679 5.71785 36.2645C5.92203 35.9908 6.08048 35.8023 6.20094 35.7201C6.23255 35.6925 6.27639 35.6749 6.32396 35.6706C6.50496 35.6622 6.90753 35.8933 7.28563 36.2991C7.43711 36.4638 7.56924 36.6386 7.68048 36.8212C8.15648 37.5428 8.41542 38.5533 8.55133 39.6371C8.55519 39.6782 8.55906 39.7187 8.56163 39.7598C8.63442 40.7991 8.20801 41.7938 7.88338 42.541C7.78032 42.7573 7.69014 42.9528 7.59803 43.1235C7.40479 43.4927 7.2457 43.748 7.08982 43.8529C7.08982 43.8673 7.09497 43.8811 7.09691 43.895C7.11108 43.9707 7.12009 44.04 7.13684 44.1009C7.14135 44.1197 7.14521 44.137 7.14908 44.1538C8.0225 43.6743 8.93651 43.1314 9.87306 42.5207C10.7561 41.9462 11.6553 41.3098 12.5462 40.611C12.5389 40.5853 12.5305 40.5561 12.521 40.5234C12.5024 40.464 12.4895 40.3903 12.4714 40.3141C12.4157 40.3205 12.359 40.319 12.304 40.3096C11.9965 40.2576 11.7025 40.1663 11.4344 40.0394C11.1517 39.912 10.8919 39.7568 10.6615 39.5777C9.88852 39.014 9.31912 38.0975 8.92685 36.9435C8.91332 36.9054 8.8998 36.8668 8.88691 36.8282C8.53909 35.7053 9.05825 34.5349 9.42089 33.6872C9.56903 33.3789 9.69657 33.1116 9.80736 32.8954C9.95744 32.6019 10.0798 32.4005 10.1835 32.3015C10.2101 32.2715 10.2503 32.2501 10.2962 32.2416C10.474 32.2134 10.9152 32.3975 11.3655 32.7578C11.5463 32.9034 11.7101 33.0608 11.855 33.2284C12.4605 33.8901 12.9049 34.8615 13.2424 35.9196C13.254 35.9597 13.2656 35.9997 13.2759 36.0393C13.5413 37.0593 13.3062 38.0916 13.1239 38.8666C13.0595 39.0922 13.0061 39.2961 12.9507 39.4748C12.8309 39.8608 12.7188 40.1315 12.5835 40.2527L12.599 40.2938C12.6273 40.3665 12.6492 40.4338 12.6769 40.4917C12.6769 40.4967 12.6808 40.5016 12.6834 40.5066C13.1046 40.173 13.5229 39.8251 13.9381 39.4629C15.1492 38.3988 16.2509 37.2641 17.2334 36.069L17.2031 36.0111C17.1716 35.9547 17.1432 35.8839 17.1091 35.8132C17.0554 35.8263 16.9992 35.832 16.9429 35.83C16.6263 35.8168 16.3149 35.7626 16.0218 35.6697C15.7148 35.5799 15.4244 35.4596 15.1581 35.3119C14.273 34.8531 13.5175 34.0207 12.8843 32.9315C12.8624 32.8959 12.8405 32.8597 12.8199 32.8231C12.2402 31.7586 12.4978 30.5398 12.6763 29.6559C12.7568 29.3333 12.8257 29.0541 12.8901 28.825C12.9758 28.5162 13.0531 28.2995 13.1349 28.1931C13.1545 28.1599 13.1897 28.1335 13.2334 28.1193C13.4028 28.0698 13.8776 28.1955 14.398 28.4939C14.6078 28.6145 14.8031 28.7494 14.9816 28.8968C15.7204 29.4733 16.3658 30.3735 16.9242 31.3766C16.9442 31.4142 16.9642 31.4528 16.9828 31.4909C17.4627 32.4629 17.4505 33.5105 17.437 34.2989C17.4241 34.5285 17.4125 34.7368 17.3957 34.9204C17.3603 35.3163 17.3068 35.5974 17.2025 35.734C17.2109 35.7469 17.2186 35.7597 17.2263 35.7721C17.2656 35.834 17.2985 35.8919 17.3339 35.9423C17.4473 35.8021 17.5598 35.6612 17.6714 35.5197C18.2324 34.7908 18.7568 34.0286 19.2431 33.2408C19.7178 32.449 20.1519 31.63 20.5313 30.7892C20.5435 30.762 20.5551 30.7347 20.5667 30.7075L20.5274 30.6615C20.4817 30.612 20.4347 30.5462 20.3819 30.4799C20.3331 30.5015 20.2796 30.516 20.2241 30.5229C19.9128 30.5595 19.5959 30.5558 19.2862 30.5121C18.9616 30.4722 18.6452 30.3999 18.3452 30.2968C17.3577 29.986 16.3973 29.2897 15.4885 28.3222C15.4576 28.2906 15.4241 28.2589 15.397 28.2262C14.5442 27.2756 14.4779 26.0408 14.4167 25.1491C14.4096 24.8205 14.4038 24.5364 14.4057 24.3023C14.4057 23.9861 14.4257 23.7624 14.4779 23.6447C14.4883 23.6093 14.5157 23.5782 14.5545 23.5576C14.7072 23.4818 15.2051 23.5308 15.7944 23.7416C16.0318 23.8269 16.2588 23.9283 16.4727 24.0445C17.3487 24.4934 18.2196 25.2733 19.0324 26.168C19.0621 26.2022 19.0917 26.2363 19.12 26.271C19.8479 27.1474 20.1133 28.1752 20.3091 28.9492C20.3574 29.1759 20.4012 29.3818 20.4334 29.5639C20.5036 29.9568 20.5261 30.2409 20.4572 30.3913L20.4907 30.425C20.5416 30.4744 20.5867 30.5239 20.6311 30.566C21.3437 28.932 21.84 27.247 22.1126 25.5366C22.1556 25.2528 22.1933 24.9688 22.226 24.6844L22.0695 24.5607C22.0173 24.5211 21.96 24.4681 21.8975 24.4147C21.8578 24.4406 21.8124 24.4609 21.7635 24.4746C21.4891 24.5483 21.2007 24.5864 20.91 24.5874C20.6066 24.5935 20.3034 24.5691 20.0083 24.5146C19.0421 24.3617 18.0167 23.8555 16.9809 23.0963C16.9455 23.0721 16.9107 23.0468 16.8766 23.0211C15.8924 22.2699 15.5581 21.1579 15.3056 20.3567C15.2263 20.0598 15.1574 19.8024 15.1085 19.5896C15.0402 19.3026 15.0067 19.0972 15.0279 18.9834C15.0294 18.9499 15.0474 18.9181 15.0782 18.8943C15.1999 18.8057 15.6624 18.785 16.244 18.8993C16.4772 18.9458 16.7045 19.0079 16.9236 19.0849C17.8183 19.3778 18.7812 19.9722 19.7171 20.6774C19.7513 20.7041 19.7854 20.7318 19.8189 20.7595C20.6737 21.4603 21.1426 22.3575 21.4936 23.036C21.5883 23.2339 21.6727 23.4165 21.7429 23.5778C21.8936 23.9243 21.9767 24.1801 21.9471 24.3256L21.9851 24.3518C22.0534 24.3988 22.1139 24.4434 22.1725 24.479L22.2472 24.5285C22.3978 23.0675 22.4058 21.5999 22.2711 20.138C22.2281 19.6431 22.1663 19.1522 22.0856 18.6652L21.9213 18.59C21.8569 18.5633 21.7886 18.5252 21.7133 18.4875C21.6844 18.5194 21.6484 18.547 21.607 18.5692C21.3762 18.6911 21.1203 18.7823 20.8501 18.8389C20.5697 18.9032 20.2795 18.939 19.987 18.9453C19.0382 18.9889 17.9175 18.7157 16.702 18.2089C16.6614 18.1931 16.6209 18.1763 16.5803 18.1594C15.4209 17.6502 14.7439 16.6788 14.2466 15.982C14.0759 15.7207 13.9284 15.4945 13.8125 15.306C13.6553 15.0521 13.5548 14.867 13.5394 14.7572C13.5299 14.7257 13.5364 14.6926 13.5574 14.6646C13.6418 14.5582 14.0656 14.4498 14.6447 14.4444C14.878 14.4424 15.111 14.4565 15.341 14.4865C16.2692 14.5854 17.3597 14.9541 18.4617 15.4302C18.503 15.4485 18.5435 15.4678 18.5841 15.4866C19.6083 15.9746 20.3381 16.7198 20.8843 17.2825C21.0376 17.4508 21.1754 17.6027 21.2933 17.7393C21.5471 18.0337 21.7081 18.2549 21.7281 18.396L21.7719 18.4133C21.8511 18.444 21.922 18.4737 21.9883 18.4955L22.0637 18.5222C21.8648 17.3245 21.5675 16.1378 21.1735 14.969C20.9751 14.382 20.7559 13.8078 20.5158 13.2463L20.4392 13.2191C20.3748 13.1973 20.2994 13.1647 20.2189 13.1335C20.1946 13.1673 20.1625 13.1975 20.1242 13.2226C19.9111 13.3622 19.6687 13.4732 19.4073 13.5507C19.137 13.6369 18.8531 13.6953 18.5629 13.7244C17.625 13.8426 16.4734 13.659 15.1967 13.2508C15.1542 13.2384 15.1117 13.2245 15.0679 13.2107C13.8441 12.7955 13.0441 11.8824 12.456 11.2277C12.2512 10.9803 12.074 10.768 11.9336 10.5898C11.7436 10.3493 11.6212 10.1731 11.589 10.0652C11.5754 10.0346 11.5774 10.0012 11.5948 9.97171C11.6644 9.85937 12.0714 9.71833 12.6466 9.66686C12.8784 9.64664 13.1121 9.64233 13.3449 9.654C14.2814 9.68023 15.4157 9.96033 16.5758 10.3468C16.6189 10.3617 16.6621 10.3775 16.7046 10.3933C17.7886 10.7977 18.6144 11.4821 19.2321 11.9982C19.4067 12.1536 19.5645 12.2952 19.7004 12.4204C19.9915 12.6935 20.1809 12.9004 20.2202 13.0394L20.2666 13.0528C20.3355 13.0736 20.3954 13.0929 20.4598 13.1082C20.0517 12.166 19.5809 11.2405 19.0492 10.3354C18.5146 9.4214 17.9381 8.56081 17.3423 7.75713L17.1574 7.72843C17.093 7.72051 17.0234 7.70418 16.9468 7.69033C16.9354 7.72319 16.9164 7.7542 16.8907 7.78188C16.7454 7.93421 16.568 8.06684 16.3658 8.17432C16.1584 8.29052 15.9318 8.38504 15.692 8.45541C14.9236 8.70284 13.8924 8.72907 12.6943 8.5816C12.655 8.57764 12.6151 8.57319 12.5751 8.56774C11.4202 8.40592 10.494 7.75367 9.81767 7.28799C9.57741 7.10984 9.36678 6.95593 9.20189 6.82528C8.97516 6.65059 8.82379 6.51994 8.76775 6.43285C8.74788 6.40873 8.74052 6.37977 8.74714 6.35169C8.77677 6.24529 9.08723 6.0607 9.56388 5.92659C9.75599 5.87242 9.95412 5.83184 10.1558 5.80534C10.9616 5.68014 12.0038 5.74002 13.0969 5.88749L13.2193 5.90679C14.2499 6.08099 15.1387 6.53479 15.8035 6.87823C15.9967 6.98265 16.1661 7.07618 16.3155 7.16427C16.6376 7.35134 16.854 7.49831 16.9242 7.60966L16.9674 7.61412C17.0447 7.62203 17.1142 7.63094 17.1774 7.63391L17.2553 7.63935C16.9506 7.23257 16.6415 6.83864 16.3304 6.46204C15.741 5.74942 15.1465 5.0942 14.5629 4.49392C14.4218 4.54341 14.1017 4.50283 13.6611 4.39494C13.4838 4.35238 13.2884 4.29976 13.075 4.23708C12.351 4.01141 11.4486 3.6655 10.78 3.06719C10.7542 3.04294 10.7278 3.0177 10.702 2.99543C10.0341 2.3422 9.45309 1.69688 9.12653 1.14707C9.04199 1.01286 8.9703 0.874088 8.91203 0.731867C8.76968 0.385454 8.76389 0.117726 8.85986 0.0425044C8.88701 0.022386 8.92268 0.0104419 8.96034 0.00885279C9.08917 -0.00896276 9.33007 0.000439891 9.6547 0.0340915C9.89625 0.0573507 10.1835 0.0949613 10.5075 0.143954C11.3809 0.299345 12.5249 0.555197 13.236 1.24357C13.2605 1.26732 13.2843 1.29306 13.3075 1.31533C14.0251 2.04032 14.5088 2.72424 14.6737 3.32502C14.7313 3.50675 14.7597 3.69323 14.7581 3.88027C14.7632 4.05554 14.7279 4.23013 14.6537 4.39593C14.6462 4.41056 14.6374 4.42478 14.6273 4.43849C15.2244 5.03779 15.8337 5.6935 16.4379 6.40711C16.7754 6.80549 17.111 7.22267 17.4415 7.65519C17.4415 7.64876 17.446 7.64232 17.4492 7.6349C17.4679 7.58888 17.4827 7.53592 17.5014 7.47753C17.5014 7.46714 17.5078 7.45625 17.511 7.44536C17.4009 7.3543 17.301 7.14596 17.189 6.84755C17.1374 6.70948 17.0853 6.55063 17.0273 6.37742C16.8521 5.77664 16.6241 4.97692 16.7877 4.17472C16.7941 4.14305 16.8006 4.11138 16.8083 4.07971C17.026 3.24386 17.3313 2.47581 17.7745 1.94432C17.8801 1.80971 18.0012 1.68268 18.1365 1.56474C18.4721 1.27178 18.8089 1.11936 18.9487 1.1342C18.9848 1.13984 19.0169 1.15553 19.0389 1.17825C19.1239 1.2505 19.2282 1.40589 19.3609 1.63155C19.4582 1.79882 19.5696 2.00419 19.6978 2.24075C20.0199 2.89349 20.4708 3.79367 20.2492 4.679C20.2414 4.70919 20.2331 4.73938 20.2234 4.76957C19.9658 5.68113 19.5632 6.41008 18.9822 6.86982C18.8097 7.01594 18.6128 7.14391 18.3967 7.25038C18.1929 7.35603 17.9676 7.43481 17.73 7.48347C17.688 7.49165 17.6443 7.494 17.6012 7.4904C17.5909 7.55028 17.5832 7.60867 17.5716 7.65519C17.5587 7.71161 17.5484 7.75664 17.5419 7.78386C18.1281 8.56081 18.6969 9.39072 19.2276 10.2716C19.7969 11.2165 20.3002 12.184 20.7355 13.1701C20.7373 13.1675 20.7388 13.1649 20.74 13.1622C20.769 13.1127 20.7941 13.0528 20.825 12.989C20.8302 12.9771 20.836 12.9657 20.8418 12.9538C20.731 12.84 20.653 12.5941 20.5777 12.2452C20.5423 12.0833 20.5088 11.8988 20.4714 11.6964C20.3716 10.9991 20.2447 10.0717 20.5616 9.17793C20.5738 9.14328 20.5873 9.10765 20.6009 9.07301C20.9873 8.14759 21.4569 7.3068 22.0476 6.74709C22.1892 6.60452 22.3472 6.47202 22.5197 6.35119C22.9487 6.05426 23.3571 5.90976 23.5104 5.94341C23.5509 5.95274 23.5852 5.97364 23.6063 6.00181C23.6907 6.09089 23.7828 6.27795 23.893 6.54617C23.9754 6.74412 24.0682 6.9876 24.1751 7.2682C24.4327 8.03922 24.7973 9.1032 24.3992 10.084C24.3851 10.1177 24.3703 10.1513 24.3548 10.183C23.9149 11.1901 23.3364 11.9769 22.6034 12.4416C22.3839 12.5919 22.1394 12.719 21.8762 12.8197C21.6283 12.9194 21.3602 12.9863 21.0833 13.0177C21.0336 13.0232 20.983 13.0218 20.9339 13.0137C20.9113 13.081 20.8939 13.1458 20.8727 13.1978C20.845 13.2701 20.8237 13.3255 20.8134 13.3532C21.0331 13.8614 21.2392 14.3796 21.426 14.9091C21.8445 16.0964 22.1638 17.3031 22.3819 18.5217C22.4173 18.4875 22.4527 18.4504 22.4926 18.4103L22.5223 18.3802C22.4579 18.2465 22.4785 17.9937 22.5384 17.6438C22.5667 17.481 22.6028 17.2974 22.6459 17.0955C22.816 16.4091 23.0466 15.4921 23.6868 14.7102C23.712 14.679 23.7384 14.6483 23.7641 14.6181C24.4862 13.8189 25.2566 13.1211 26.0347 12.7207C26.2244 12.6166 26.4257 12.5255 26.6363 12.4486C27.1599 12.259 27.6024 12.2135 27.739 12.2808C27.774 12.2981 27.7992 12.325 27.8092 12.356C27.8569 12.4609 27.8736 12.6599 27.8775 12.941C27.8807 13.1493 27.8775 13.4027 27.8723 13.6952C27.8227 14.4894 27.7706 15.5895 27.0163 16.4388C26.9899 16.4675 26.9628 16.4962 26.9351 16.5244C26.1319 17.3889 25.2804 18.012 24.4025 18.2916C24.1358 18.3848 23.8543 18.4504 23.5651 18.4866C23.2889 18.5266 23.0059 18.531 22.7277 18.4994C22.6781 18.4933 22.6303 18.4804 22.5867 18.4613C22.5397 18.5202 22.4984 18.5786 22.4579 18.6231C22.4392 18.6444 22.4231 18.6637 22.4083 18.6815C22.4894 19.1546 22.5558 19.6319 22.6073 20.1132C22.7633 21.5672 22.7796 23.0281 22.6563 24.484L22.7271 24.4345L22.7651 24.4082C22.7355 24.2628 22.8192 24.0079 22.9699 23.6605C23.0395 23.4992 23.1245 23.3185 23.2186 23.1186C23.5677 22.4416 24.0366 21.5444 24.8933 20.8422C24.9268 20.8149 24.9577 20.7877 24.995 20.761C25.9316 20.0553 26.8946 19.461 27.7886 19.168C28.0085 19.0907 28.2367 19.0283 28.4707 18.9814C29.0504 18.8671 29.5148 18.8879 29.6366 18.9765C29.6676 19.0002 29.6858 19.032 29.6875 19.0656C29.7081 19.1794 29.6752 19.3848 29.6069 19.6718C29.5535 19.8856 29.4839 20.1439 29.406 20.4408C29.1528 21.242 28.8185 22.354 27.835 23.1052C27.8002 23.1305 27.7654 23.1547 27.7306 23.1805C26.6917 23.9396 25.6656 24.4459 24.7033 24.5988C24.4081 24.6531 24.1049 24.6776 23.8015 24.6715C23.511 24.6707 23.2227 24.6324 22.9487 24.5582C22.8996 24.5447 22.854 24.5246 22.8141 24.4988C22.7496 24.5513 22.6962 24.6037 22.644 24.6428C22.6148 24.9536 22.579 25.2641 22.5364 25.5742C22.2888 27.2928 21.8189 28.9882 21.1336 30.6353L21.1812 30.613C21.1896 30.4537 21.348 30.1968 21.6031 29.8519C21.7216 29.6915 21.8608 29.5134 22.0166 29.3164C22.5725 28.6538 23.3165 27.7759 24.416 27.1697C24.4591 27.1459 24.5029 27.1202 24.5448 27.0994C25.7326 26.5016 26.9184 26.0255 27.9483 25.8592C28.2021 25.8125 28.4608 25.7831 28.7213 25.7711C29.3706 25.7439 29.8569 25.8409 29.9619 25.9547C29.9902 25.9835 30.0035 26.0193 29.9992 26.0552C29.9908 26.1789 29.8987 26.3917 29.748 26.6857C29.6366 26.9034 29.4904 27.1657 29.328 27.4691C28.8398 28.2792 28.1802 29.4065 26.9287 30.0454C26.8855 30.0672 26.8417 30.0879 26.7999 30.1087C25.4878 30.7471 24.2588 31.1193 23.1928 31.1252C22.8646 31.1355 22.536 31.1124 22.2157 31.0564C21.9071 31.0083 21.6111 30.9212 21.3397 30.7986C21.2916 30.7761 21.2491 30.7473 21.2141 30.7135C21.1632 30.7422 21.1155 30.7714 21.0704 30.7971C21.0537 30.8362 21.0376 30.8758 21.0208 30.9149C20.646 31.7715 20.2183 32.6069 19.7481 33.4165C19.2669 34.2221 18.7452 35.0001 18.1854 35.7488C18.0746 35.8947 17.9626 36.039 17.8492 36.1819L17.8917 36.1705L17.9432 36.1556C17.9922 36.0007 18.2125 35.7721 18.55 35.4722C18.7065 35.3326 18.8888 35.1782 19.0904 35.0085C19.8034 34.4414 20.7555 33.6911 21.9889 33.2606C22.0373 33.2433 22.0862 33.2269 22.1352 33.2111C23.4511 32.8013 24.7348 32.5114 25.7873 32.5019C26.049 32.4937 26.3112 32.5036 26.5706 32.5316C27.2147 32.6014 27.6656 32.7687 27.7409 32.8959C27.7583 32.9297 27.7583 32.9674 27.7409 33.0013C27.701 33.1215 27.5574 33.317 27.3351 33.5823C27.1709 33.7802 26.9641 34.0158 26.7252 34.288C26.0417 35.0105 25.1103 36.02 23.721 36.458C23.6727 36.4728 23.6244 36.4867 23.5761 36.5006C22.1281 36.9311 20.8289 37.1132 19.7803 36.9598C19.4556 36.9207 19.1391 36.8491 18.8386 36.747C18.5482 36.6535 18.2801 36.5238 18.045 36.363C18.0031 36.3339 17.9684 36.2992 17.9426 36.2605C17.8634 36.2892 17.7893 36.3194 17.7223 36.3417C16.748 37.5562 15.6529 38.7111 14.447 39.7959C13.9883 40.2064 13.5248 40.5991 13.0563 40.9742L13.1935 40.9638L13.2489 40.9594C13.3455 40.8184 13.6315 40.6377 14.054 40.4101C14.2473 40.3042 14.4753 40.1889 14.7246 40.0637C15.5883 39.647 16.7497 39.0977 18.083 38.9096L18.2408 38.8888C19.6469 38.7404 20.9835 38.6968 22.0083 38.8844C22.2646 38.9257 22.5157 38.9843 22.7587 39.0596C23.3577 39.2461 23.7435 39.4936 23.7757 39.6321C23.7825 39.6681 23.7713 39.7048 23.7442 39.7346C23.6675 39.8439 23.4659 40.0063 23.1645 40.222C22.9422 40.3829 22.6672 40.5729 22.349 40.7926C21.4569 41.3652 20.2344 42.1684 18.7477 42.3356C18.6962 42.3411 18.6453 42.345 18.5938 42.349C17.0531 42.4975 15.7352 42.4297 14.7664 42.0852C14.4639 41.9868 14.1795 41.8582 13.9207 41.7027C13.6685 41.5577 13.4494 41.3816 13.2721 41.1816C13.2415 41.1455 13.2197 41.1054 13.2077 41.0633C13.1085 41.0787 13.0144 41.0965 12.9358 41.1049L12.8805 41.1118C12.0373 41.7804 11.1884 42.3931 10.3529 42.9498C9.37451 43.601 8.42122 44.1796 7.51301 44.6898L7.53555 44.6927C7.61542 44.7036 7.7056 44.7096 7.80415 44.7185L7.85954 44.7234C7.99288 44.6012 8.32138 44.471 8.79738 44.3171C9.01767 44.2454 9.27016 44.1687 9.54907 44.085C10.5152 43.8193 11.8035 43.4704 13.1561 43.5036C13.2096 43.5036 13.2631 43.5065 13.3159 43.5095C14.7329 43.5897 16.0502 43.7668 16.9996 44.1162C17.2385 44.1985 17.4676 44.2967 17.6843 44.4097C18.2215 44.6913 18.5307 44.9956 18.5216 45.1347C18.518 45.1709 18.4971 45.2049 18.463 45.2302C18.358 45.3247 18.1165 45.4504 17.7642 45.6127C17.5065 45.734 17.1845 45.875 16.8102 46.0383C15.7796 46.453 14.3626 47.0394 12.8656 46.9608C12.8141 46.9578 12.7626 46.9538 12.7117 46.9499C11.1658 46.843 9.89496 46.5634 9.04021 46.0695C8.77162 45.9239 8.52908 45.7519 8.3188 45.5578C8.11209 45.3754 7.94642 45.1679 7.82862 44.9436C7.80814 44.9034 7.79723 44.8607 7.79642 44.8175C7.69529 44.8175 7.59803 44.8175 7.5188 44.814L7.30431 44.8061C7.02412 44.961 6.74715 45.1099 6.47662 45.2515C5.88403 45.5786 5.29788 45.8453 4.77228 46.1155L3.28758 46.8034L2.06376 47.3299C1.70756 47.4829 1.40225 47.5967 1.15619 47.6976L0.399353 48L0 47.4012L0.761347 47.1043C1.00805 47.0063 1.32109 46.8925 1.67085 46.7465Z" stroke="#FF6B00" stroke-width="2" mask="url(#path-1-inside-1_2_234)"/>
</g>
</svg>
