<svg width="30" height="48" viewBox="0 0 30 48" fill="none" xmlns="http://www.w3.org/2000/svg">
<g opacity="0.5">
<mask id="path-1-inside-1_2_233" fill="white">
<path d="M28.3292 46.7465L27.1272 46.2432L25.6573 45.5805C25.1369 45.3212 24.5553 45.0619 23.9685 44.7462C23.6559 44.5868 23.3362 44.4184 23.0094 44.2409C23.0126 44.2078 23.0165 44.1657 23.021 44.1162C23.0287 44.0553 23.0274 43.9811 23.0313 43.9034C23.0877 43.9032 23.1437 43.8955 23.1968 43.8806C23.4912 43.7952 23.7649 43.6724 24.0065 43.5174C24.2636 43.3596 24.4927 43.1766 24.6879 42.973C25.3495 42.3297 25.7404 41.3602 25.9118 40.175C25.9182 40.1354 25.9247 40.0963 25.9298 40.0567C26.0638 38.9066 25.3314 37.806 24.8148 37.0068C24.6107 36.7178 24.4342 36.4679 24.2822 36.2645C24.078 35.9908 23.9195 35.8023 23.7991 35.7201C23.7675 35.6925 23.7236 35.6749 23.676 35.6706C23.495 35.6622 23.0925 35.8933 22.7144 36.2991C22.5629 36.4638 22.4308 36.6386 22.3195 36.8212C21.8435 37.5428 21.5846 38.5533 21.4487 39.6371C21.4448 39.6782 21.4409 39.7187 21.4384 39.7598C21.3656 40.7991 21.792 41.7938 22.1166 42.541C22.2197 42.7573 22.3099 42.9528 22.402 43.1235C22.5952 43.4927 22.7543 43.748 22.9102 43.8529C22.9102 43.8673 22.905 43.8811 22.9031 43.895C22.8889 43.9707 22.8799 44.04 22.8632 44.1009C22.8587 44.1197 22.8548 44.137 22.8509 44.1538C21.9775 43.6743 21.0635 43.1314 20.1269 42.5207C19.2439 41.9462 18.3447 41.3098 17.4538 40.611C17.4611 40.5853 17.4695 40.5561 17.479 40.5234C17.4976 40.464 17.5105 40.3903 17.5286 40.3141C17.5843 40.3205 17.641 40.319 17.696 40.3096C18.0035 40.2576 18.2975 40.1663 18.5656 40.0394C18.8483 39.912 19.1081 39.7568 19.3385 39.5777C20.1115 39.014 20.6809 38.0975 21.0732 36.9435C21.0867 36.9054 21.1002 36.8668 21.1131 36.8282C21.4609 35.7053 20.9418 34.5349 20.5791 33.6872C20.431 33.3789 20.3034 33.1116 20.1926 32.8954C20.0426 32.6019 19.9202 32.4005 19.8165 32.3015C19.7899 32.2715 19.7497 32.2501 19.7038 32.2416C19.526 32.2134 19.0848 32.3975 18.6345 32.7578C18.4537 32.9034 18.2899 33.0608 18.145 33.2284C17.5395 33.8901 17.0951 34.8615 16.7576 35.9196C16.746 35.9597 16.7344 35.9997 16.7241 36.0393C16.4587 37.0593 16.6938 38.0916 16.8761 38.8666C16.9405 39.0922 16.9939 39.2961 17.0493 39.4748C17.1691 39.8608 17.2812 40.1315 17.4165 40.2527L17.401 40.2938C17.3727 40.3665 17.3508 40.4338 17.3231 40.4917C17.3231 40.4967 17.3192 40.5016 17.3166 40.5066C16.8954 40.173 16.4771 39.8251 16.0619 39.4629C14.8508 38.3988 13.7491 37.2641 12.7666 36.069L12.7969 36.0111C12.8284 35.9547 12.8568 35.8839 12.8909 35.8132C12.9446 35.8263 13.0008 35.832 13.0571 35.83C13.3737 35.8168 13.6851 35.7626 13.9782 35.6697C14.2852 35.5799 14.5756 35.4596 14.8419 35.3119C15.727 34.8531 16.4825 34.0207 17.1157 32.9315C17.1376 32.8959 17.1595 32.8597 17.1801 32.8231C17.7598 31.7586 17.5022 30.5398 17.3237 29.6559C17.2432 29.3333 17.1743 29.0541 17.1099 28.825C17.0242 28.5162 16.9469 28.2995 16.8651 28.1931C16.8455 28.1599 16.8103 28.1335 16.7666 28.1193C16.5972 28.0698 16.1224 28.1955 15.602 28.4939C15.3922 28.6145 15.1969 28.7494 15.0184 28.8968C14.2796 29.4733 13.6342 30.3735 13.0758 31.3766C13.0558 31.4142 13.0358 31.4528 13.0172 31.4909C12.5373 32.4629 12.5495 33.5105 12.563 34.2989C12.5759 34.5285 12.5875 34.7368 12.6043 34.9204C12.6397 35.3163 12.6932 35.5974 12.7975 35.734C12.7891 35.7469 12.7814 35.7597 12.7737 35.7721C12.7344 35.834 12.7015 35.8919 12.6661 35.9423C12.5527 35.8021 12.4402 35.6612 12.3286 35.5197C11.7676 34.7908 11.2432 34.0286 10.7569 33.2408C10.2822 32.449 9.84808 31.63 9.4687 30.7892C9.45646 30.762 9.44487 30.7347 9.43327 30.7075L9.47256 30.6615C9.5183 30.612 9.56532 30.5462 9.61813 30.4799C9.66691 30.5015 9.72038 30.516 9.77594 30.5229C10.0872 30.5595 10.4041 30.5558 10.7138 30.5121C11.0384 30.4722 11.3548 30.3999 11.6548 30.2968C12.6423 29.986 13.6027 29.2897 14.5115 28.3222C14.5424 28.2906 14.5759 28.2589 14.603 28.2262C15.4558 27.2756 15.5221 26.0408 15.5833 25.1491C15.5904 24.8205 15.5962 24.5364 15.5943 24.3023C15.5943 23.9861 15.5743 23.7624 15.5221 23.6447C15.5117 23.6093 15.4843 23.5782 15.4455 23.5576C15.2928 23.4818 14.7949 23.5308 14.2056 23.7416C13.9682 23.8269 13.7412 23.9283 13.5273 24.0445C12.6513 24.4934 11.7804 25.2733 10.9676 26.168C10.9379 26.2022 10.9083 26.2363 10.88 26.271C10.1521 27.1474 9.88673 28.1752 9.69092 28.9492C9.64261 29.1759 9.59881 29.3818 9.5666 29.5639C9.4964 29.9568 9.47385 30.2409 9.54277 30.3913L9.50928 30.425C9.45839 30.4744 9.4133 30.5239 9.36886 30.566C8.65634 28.932 8.16 27.247 7.88739 25.5366C7.84444 25.2528 7.80666 24.9688 7.77402 24.6844L7.93054 24.5607C7.98272 24.5211 8.04004 24.4681 8.10252 24.4147C8.1422 24.4406 8.18757 24.4609 8.2365 24.4746C8.51088 24.5483 8.7993 24.5864 9.08996 24.5874C9.39339 24.5935 9.69656 24.5691 9.99172 24.5146C10.9579 24.3617 11.9833 23.8555 13.0191 23.0963C13.0545 23.0721 13.0893 23.0468 13.1234 23.0211C14.1076 22.2699 14.4419 21.1579 14.6944 20.3567C14.7737 20.0598 14.8426 19.8024 14.8915 19.5896C14.9598 19.3026 14.9933 19.0972 14.9721 18.9834C14.9706 18.9499 14.9526 18.9181 14.9218 18.8943C14.8001 18.8057 14.3376 18.785 13.756 18.8993C13.5228 18.9458 13.2955 19.0079 13.0764 19.0849C12.1817 19.3778 11.2188 19.9722 10.2829 20.6774C10.2487 20.7041 10.2146 20.7318 10.1811 20.7595C9.32635 21.4603 8.85743 22.3575 8.50638 23.036C8.4117 23.2339 8.32732 23.4165 8.25711 23.5778C8.10639 23.9243 8.02329 24.1801 8.05292 24.3256L8.01492 24.3518C7.94664 24.3988 7.8861 24.4434 7.82748 24.479L7.75276 24.5285C7.60221 23.0675 7.59425 21.5999 7.72893 20.138C7.77187 19.6431 7.83371 19.1522 7.91444 18.6652L8.07869 18.59C8.1431 18.5633 8.21138 18.5252 8.28674 18.4875C8.31559 18.5194 8.35158 18.547 8.39302 18.5692C8.62379 18.6911 8.87965 18.7823 9.14986 18.8389C9.43028 18.9032 9.72046 18.939 10.013 18.9453C10.9618 18.9889 12.0825 18.7157 13.298 18.2089C13.3386 18.1931 13.3791 18.1763 13.4197 18.1594C14.5791 17.6502 15.2561 16.6788 15.7534 15.982C15.9241 15.7207 16.0716 15.4945 16.1875 15.306C16.3447 15.0521 16.4452 14.867 16.4606 14.7572C16.4701 14.7257 16.4636 14.6926 16.4426 14.6646C16.3582 14.5582 15.9344 14.4498 15.3553 14.4444C15.122 14.4424 14.889 14.4565 14.659 14.4865C13.7308 14.5854 12.6403 14.9541 11.5383 15.4302C11.497 15.4485 11.4565 15.4678 11.4159 15.4866C10.3917 15.9746 9.66193 16.7198 9.11572 17.2825C8.96242 17.4508 8.82458 17.6027 8.70671 17.7393C8.45292 18.0337 8.29189 18.2549 8.27192 18.396L8.22812 18.4133C8.1489 18.444 8.07804 18.4737 8.0117 18.4955L7.93634 18.5222C8.13516 17.3245 8.43248 16.1378 8.82651 14.969C9.0249 14.382 9.24411 13.8078 9.48416 13.2463L9.56081 13.2191C9.62522 13.1973 9.70058 13.1647 9.7811 13.1335C9.8054 13.1673 9.83748 13.1975 9.87578 13.2226C10.0889 13.3622 10.3313 13.4732 10.5927 13.5507C10.863 13.6369 11.1469 13.6953 11.4371 13.7244C12.375 13.8426 13.5266 13.659 14.8033 13.2508C14.8458 13.2384 14.8883 13.2245 14.9321 13.2107C16.1559 12.7955 16.9559 11.8824 17.544 11.2277C17.7488 10.9803 17.926 10.768 18.0664 10.5898C18.2564 10.3493 18.3788 10.1731 18.411 10.0652C18.4246 10.0346 18.4226 10.0012 18.4052 9.97171C18.3356 9.85937 17.9286 9.71833 17.3534 9.66686C17.1216 9.64664 16.8879 9.64233 16.6551 9.654C15.7186 9.68023 14.5843 9.96033 13.4242 10.3468C13.3811 10.3617 13.3379 10.3775 13.2954 10.3933C12.2114 10.7977 11.3856 11.4821 10.7679 11.9982C10.5933 12.1536 10.4355 12.2952 10.2996 12.4204C10.0085 12.6935 9.8191 12.9004 9.77981 13.0394L9.73343 13.0528C9.66451 13.0736 9.60461 13.0929 9.5402 13.1082C9.94832 12.166 10.4191 11.2405 10.9508 10.3354C11.4854 9.4214 12.0619 8.56081 12.6577 7.75713L12.8426 7.72843C12.907 7.72051 12.9766 7.70418 13.0532 7.69033C13.0646 7.72319 13.0836 7.7542 13.1093 7.78188C13.2546 7.93421 13.432 8.06684 13.6342 8.17432C13.8416 8.29052 14.0682 8.38504 14.308 8.45541C15.0764 8.70284 16.1076 8.72907 17.3057 8.5816C17.345 8.57764 17.3849 8.57319 17.4249 8.56774C18.5798 8.40592 19.506 7.75367 20.1823 7.28799C20.4226 7.10984 20.6332 6.95593 20.7981 6.82528C21.0248 6.65059 21.1762 6.51994 21.2322 6.43285C21.2521 6.40873 21.2595 6.37977 21.2529 6.35169C21.2232 6.24529 20.9128 6.0607 20.4361 5.92659C20.244 5.87242 20.0459 5.83184 19.8442 5.80534C19.0384 5.68014 17.9962 5.74002 16.9031 5.88749L16.7807 5.90679C15.7501 6.08099 14.8613 6.53479 14.1965 6.87823C14.0033 6.98265 13.8339 7.07618 13.6845 7.16427C13.3624 7.35134 13.146 7.49831 13.0758 7.60966L13.0326 7.61412C12.9553 7.62203 12.8858 7.63094 12.8226 7.63391L12.7447 7.63935C13.0494 7.23257 13.3585 6.83864 13.6696 6.46204C14.259 5.74942 14.8535 5.0942 15.4371 4.49392C15.5782 4.54341 15.8983 4.50283 16.3389 4.39494C16.5162 4.35238 16.7116 4.29976 16.925 4.23708C17.649 4.01141 18.5514 3.6655 19.22 3.06719C19.2458 3.04294 19.2722 3.0177 19.298 2.99543C19.9659 2.3422 20.5469 1.69688 20.8735 1.14707C20.958 1.01286 21.0297 0.874088 21.088 0.731867C21.2303 0.385454 21.2361 0.117726 21.1401 0.0425044C21.113 0.022386 21.0773 0.0104419 21.0397 0.00885279C20.9108 -0.00896276 20.6699 0.000439891 20.3453 0.0340915C20.1038 0.0573507 19.8165 0.0949613 19.4925 0.143954C18.6191 0.299345 17.4751 0.555197 16.764 1.24357C16.7395 1.26732 16.7157 1.29306 16.6925 1.31533C15.9749 2.04032 15.4912 2.72424 15.3263 3.32502C15.2687 3.50675 15.2403 3.69323 15.2419 3.88027C15.2368 4.05554 15.2721 4.23013 15.3463 4.39593C15.3538 4.41056 15.3626 4.42478 15.3727 4.43849C14.7756 5.03779 14.1663 5.6935 13.5621 6.40711C13.2246 6.80549 12.889 7.22267 12.5585 7.65519C12.5585 7.64876 12.554 7.64232 12.5508 7.6349C12.5321 7.58888 12.5173 7.53592 12.4986 7.47753C12.4986 7.46714 12.4922 7.45625 12.489 7.44536C12.5991 7.3543 12.699 7.14596 12.811 6.84755C12.8626 6.70948 12.9147 6.55063 12.9727 6.37742C13.1479 5.77664 13.3759 4.97692 13.2123 4.17472C13.2059 4.14305 13.1994 4.11138 13.1917 4.07971C12.974 3.24386 12.6687 2.47581 12.2255 1.94432C12.1199 1.80971 11.9988 1.68268 11.8635 1.56474C11.5279 1.27178 11.1911 1.11936 11.0513 1.1342C11.0152 1.13984 10.9831 1.15553 10.9611 1.17825C10.8761 1.2505 10.7718 1.40589 10.6391 1.63155C10.5418 1.79882 10.4304 2.00419 10.3022 2.24075C9.98013 2.89349 9.52924 3.79367 9.75082 4.679C9.75855 4.70919 9.76693 4.73938 9.77659 4.76957C10.0342 5.68113 10.4368 6.41008 11.0178 6.86982C11.1903 7.01594 11.3872 7.14391 11.6033 7.25038C11.8071 7.35603 12.0324 7.43481 12.27 7.48347C12.312 7.49165 12.3557 7.494 12.3988 7.4904C12.4091 7.55028 12.4168 7.60867 12.4284 7.65519C12.4413 7.71161 12.4516 7.75664 12.4581 7.78386C11.8719 8.56081 11.3031 9.39072 10.7724 10.2716C10.2031 11.2165 9.69981 12.184 9.26451 13.1701C9.26274 13.1675 9.26123 13.1649 9.26 13.1622C9.23102 13.1127 9.2059 13.0528 9.17498 12.989C9.16983 12.9771 9.16403 12.9657 9.15823 12.9538C9.26902 12.84 9.34696 12.5941 9.42232 12.2452C9.45775 12.0833 9.49124 11.8988 9.5286 11.6964C9.62844 10.9991 9.75533 10.0717 9.43843 9.17793C9.42619 9.14328 9.41266 9.10765 9.39913 9.07301C9.01266 8.14759 8.5431 7.3068 7.95244 6.74709C7.81082 6.60452 7.6528 6.47202 7.4803 6.35119C7.05132 6.05426 6.64295 5.90976 6.48965 5.94341C6.44912 5.95274 6.41478 5.97364 6.39367 6.00181C6.30929 6.09089 6.21718 6.27795 6.10704 6.54617C6.02459 6.74412 5.93184 6.9876 5.82492 7.2682C5.56727 8.03922 5.2027 9.1032 5.60076 10.084C5.61493 10.1177 5.62975 10.1513 5.64521 10.183C6.08514 11.1901 6.66356 11.9769 7.39657 12.4416C7.61608 12.5919 7.86063 12.719 8.12378 12.8197C8.37175 12.9194 8.6398 12.9863 8.91669 13.0177C8.96641 13.0232 9.01701 13.0218 9.06612 13.0137C9.08867 13.081 9.10606 13.1458 9.12731 13.1978C9.15501 13.2701 9.17627 13.3255 9.18657 13.3532C8.96693 13.8614 8.76081 14.3796 8.57402 14.9091C8.15552 16.0964 7.83625 17.3031 7.61814 18.5217C7.58272 18.4875 7.54729 18.4504 7.50736 18.4103L7.47773 18.3802C7.54214 18.2465 7.52153 17.9937 7.46162 17.6438C7.43328 17.481 7.39721 17.2974 7.35405 17.0955C7.18401 16.4091 6.95341 15.4921 6.31316 14.7102C6.28804 14.679 6.26163 14.6483 6.23586 14.6181C5.51381 13.8189 4.74344 13.1211 3.96534 12.7207C3.77563 12.6166 3.57432 12.5255 3.36374 12.4486C2.84007 12.259 2.39756 12.2135 2.261 12.2808C2.22595 12.2981 2.20083 12.325 2.19079 12.356C2.14313 12.4609 2.12638 12.6599 2.12252 12.941C2.1193 13.1493 2.12252 13.4027 2.12767 13.6952C2.17727 14.4894 2.22944 15.5895 2.98371 16.4388C3.01011 16.4675 3.03717 16.4962 3.06486 16.5244C3.86808 17.3889 4.71961 18.012 5.59754 18.2916C5.86415 18.3848 6.14575 18.4504 6.4349 18.4866C6.71113 18.5266 6.99415 18.531 7.27225 18.4994C7.32187 18.4933 7.36966 18.4804 7.41331 18.4613C7.46033 18.5202 7.50156 18.5786 7.54214 18.6231C7.56082 18.6444 7.57692 18.6637 7.59173 18.6815C7.51058 19.1546 7.44423 19.6319 7.3927 20.1132C7.23674 21.5672 7.22038 23.0281 7.34375 24.484L7.2729 24.4345L7.23489 24.4082C7.26452 24.2628 7.18079 24.0079 7.03006 23.6605C6.9605 23.4992 6.87547 23.3185 6.78143 23.1186C6.43232 22.4416 5.9634 21.5444 5.10672 20.8422C5.07323 20.8149 5.04231 20.7877 5.00495 20.761C4.0684 20.0553 3.10544 19.461 2.21141 19.168C1.99152 19.0907 1.76328 19.0283 1.52928 18.9814C0.949576 18.8671 0.485166 18.8879 0.363428 18.9765C0.332393 19.0002 0.314207 19.032 0.312542 19.0656C0.291931 19.1794 0.324781 19.3848 0.393057 19.6718C0.446519 19.8856 0.516084 20.1439 0.594023 20.4408C0.847162 21.242 1.18146 22.354 2.16503 23.1052C2.19981 23.1305 2.23459 23.1547 2.26938 23.1805C3.30834 23.9396 4.33442 24.4459 5.29674 24.5988C5.59192 24.6531 5.89507 24.6776 6.1985 24.6715C6.48903 24.6707 6.77732 24.6324 7.05132 24.5582C7.10042 24.5447 7.146 24.5246 7.18594 24.4988C7.25035 24.5513 7.30381 24.6037 7.35599 24.6428C7.38519 24.9536 7.42104 25.2641 7.46355 25.5742C7.71117 27.2928 8.18112 28.9882 8.86645 30.6353L8.81878 30.613C8.81041 30.4537 8.65195 30.1968 8.39688 29.8519C8.27837 29.6915 8.13924 29.5134 7.98336 29.3164C7.42748 28.6538 6.68353 27.7759 5.58401 27.1697C5.54086 27.1459 5.49706 27.1202 5.45519 27.0994C4.26744 26.5016 3.08161 26.0255 2.05166 25.8592C1.79787 25.8125 1.53923 25.7831 1.27872 25.7711C0.629449 25.7439 0.143139 25.8409 0.0381477 25.9547C0.00982239 25.9835 -0.00350229 26.0193 0.00078873 26.0552C0.00916228 26.1789 0.101271 26.3917 0.251995 26.6857C0.363428 26.9034 0.509643 27.1657 0.671961 27.4691C1.1602 28.2792 1.81978 29.4065 3.07131 30.0454C3.11446 30.0672 3.15826 30.0879 3.20013 30.1087C4.5122 30.7471 5.74118 31.1193 6.8072 31.1252C7.13543 31.1355 7.464 31.1124 7.78433 31.0564C8.09289 31.0083 8.38892 30.9212 8.66033 30.7986C8.70837 30.7761 8.75089 30.7473 8.78593 30.7135C8.83682 30.7422 8.88448 30.7714 8.92957 30.7971C8.94632 30.8362 8.96242 30.8758 8.97917 30.9149C9.35404 31.7715 9.78174 32.6069 10.2519 33.4165C10.7331 34.2221 11.2548 35.0001 11.8146 35.7488C11.9254 35.8947 12.0374 36.039 12.1508 36.1819L12.1083 36.1705L12.0568 36.1556C12.0078 36.0007 11.7875 35.7721 11.45 35.4722C11.2935 35.3326 11.1112 35.1782 10.9096 35.0085C10.1966 34.4414 9.24454 33.6911 8.01106 33.2606C7.96275 33.2433 7.91379 33.2269 7.86484 33.2111C6.54891 32.8013 5.26518 32.5114 4.21268 32.5019C3.95097 32.4937 3.68882 32.5036 3.42944 32.5316C2.78532 32.6014 2.33443 32.7687 2.25907 32.8959C2.24167 32.9297 2.24167 32.9674 2.25907 33.0013C2.29901 33.1215 2.44265 33.317 2.66487 33.5823C2.82912 33.7802 3.03588 34.0158 3.27485 34.288C3.95826 35.0105 4.88965 36.02 6.27902 36.458C6.32733 36.4728 6.37564 36.4867 6.42395 36.5006C7.87193 36.9311 9.17111 37.1132 10.2197 36.9598C10.5444 36.9207 10.8609 36.8491 11.1614 36.747C11.4518 36.6535 11.7199 36.5238 11.955 36.363C11.9969 36.3339 12.0316 36.2992 12.0574 36.2605C12.1366 36.2892 12.2107 36.3194 12.2777 36.3417C13.252 37.5562 14.3471 38.7111 15.553 39.7959C16.0117 40.2064 16.4752 40.5991 16.9437 40.9742L16.8065 40.9638L16.7511 40.9594C16.6545 40.8184 16.3685 40.6377 15.946 40.4101C15.7527 40.3042 15.5247 40.1889 15.2754 40.0637C14.4117 39.647 13.2503 39.0977 11.917 38.9096L11.7592 38.8888C10.3531 38.7404 9.01653 38.6968 7.99173 38.8844C7.73539 38.9257 7.48429 38.9843 7.24133 39.0596C6.6423 39.2461 6.25648 39.4936 6.22427 39.6321C6.21746 39.6681 6.22874 39.7048 6.25583 39.7346C6.33248 39.8439 6.53409 40.0063 6.83554 40.222C7.05776 40.3829 7.3328 40.5729 7.65099 40.7926C8.5431 41.3652 9.76564 42.1684 11.2523 42.3356C11.3038 42.3411 11.3547 42.345 11.4062 42.349C12.9469 42.4975 14.2648 42.4297 15.2336 42.0852C15.5361 41.9868 15.8205 41.8582 16.0793 41.7027C16.3315 41.5577 16.5506 41.3816 16.7279 41.1816C16.7585 41.1455 16.7803 41.1054 16.7923 41.0633C16.8915 41.0787 16.9856 41.0965 17.0642 41.1049L17.1195 41.1118C17.9627 41.7804 18.8116 42.3931 19.6471 42.9498C20.6255 43.601 21.5788 44.1796 22.487 44.6898L22.4644 44.6927C22.3846 44.7036 22.2944 44.7096 22.1959 44.7185L22.1405 44.7234C22.0071 44.6012 21.6786 44.471 21.2026 44.3171C20.9823 44.2454 20.7298 44.1687 20.4509 44.085C19.4848 43.8193 18.1965 43.4704 16.8439 43.5036C16.7904 43.5036 16.7369 43.5065 16.6841 43.5095C15.2671 43.5897 13.9498 43.7668 13.0004 44.1162C12.7615 44.1985 12.5324 44.2967 12.3157 44.4097C11.7785 44.6913 11.4693 44.9956 11.4784 45.1347C11.482 45.1709 11.5029 45.2049 11.537 45.2302C11.642 45.3247 11.8835 45.4504 12.2358 45.6127C12.4935 45.734 12.8155 45.875 13.1898 46.0383C14.2204 46.453 15.6374 47.0394 17.1344 46.9608C17.1859 46.9578 17.2374 46.9538 17.2883 46.9499C18.8342 46.843 20.105 46.5634 20.9598 46.0695C21.2284 45.9239 21.4709 45.7519 21.6812 45.5578C21.8879 45.3754 22.0536 45.1679 22.1714 44.9436C22.1919 44.9034 22.2028 44.8607 22.2036 44.8175C22.3047 44.8175 22.402 44.8175 22.4812 44.814L22.6957 44.8061C22.9759 44.961 23.2529 45.1099 23.5234 45.2515C24.116 45.5786 24.7021 45.8453 25.2277 46.1155L26.7124 46.8034L27.9362 47.3299C28.2924 47.4829 28.5978 47.5967 28.8438 47.6976L29.6006 48L30 47.4012L29.2387 47.1043C28.992 47.0063 28.6789 46.8925 28.3292 46.7465Z"/>
</mask>
<path d="M28.3292 46.7465L27.1272 46.2432L25.6573 45.5805C25.1369 45.3212 24.5553 45.0619 23.9685 44.7462C23.6559 44.5868 23.3362 44.4184 23.0094 44.2409C23.0126 44.2078 23.0165 44.1657 23.021 44.1162C23.0287 44.0553 23.0274 43.9811 23.0313 43.9034C23.0877 43.9032 23.1437 43.8955 23.1968 43.8806C23.4912 43.7952 23.7649 43.6724 24.0065 43.5174C24.2636 43.3596 24.4927 43.1766 24.6879 42.973C25.3495 42.3297 25.7404 41.3602 25.9118 40.175C25.9182 40.1354 25.9247 40.0963 25.9298 40.0567C26.0638 38.9066 25.3314 37.806 24.8148 37.0068C24.6107 36.7178 24.4342 36.4679 24.2822 36.2645C24.078 35.9908 23.9195 35.8023 23.7991 35.7201C23.7675 35.6925 23.7236 35.6749 23.676 35.6706C23.495 35.6622 23.0925 35.8933 22.7144 36.2991C22.5629 36.4638 22.4308 36.6386 22.3195 36.8212C21.8435 37.5428 21.5846 38.5533 21.4487 39.6371C21.4448 39.6782 21.4409 39.7187 21.4384 39.7598C21.3656 40.7991 21.792 41.7938 22.1166 42.541C22.2197 42.7573 22.3099 42.9528 22.402 43.1235C22.5952 43.4927 22.7543 43.748 22.9102 43.8529C22.9102 43.8673 22.905 43.8811 22.9031 43.895C22.8889 43.9707 22.8799 44.04 22.8632 44.1009C22.8587 44.1197 22.8548 44.137 22.8509 44.1538C21.9775 43.6743 21.0635 43.1314 20.1269 42.5207C19.2439 41.9462 18.3447 41.3098 17.4538 40.611C17.4611 40.5853 17.4695 40.5561 17.479 40.5234C17.4976 40.464 17.5105 40.3903 17.5286 40.3141C17.5843 40.3205 17.641 40.319 17.696 40.3096C18.0035 40.2576 18.2975 40.1663 18.5656 40.0394C18.8483 39.912 19.1081 39.7568 19.3385 39.5777C20.1115 39.014 20.6809 38.0975 21.0732 36.9435C21.0867 36.9054 21.1002 36.8668 21.1131 36.8282C21.4609 35.7053 20.9418 34.5349 20.5791 33.6872C20.431 33.3789 20.3034 33.1116 20.1926 32.8954C20.0426 32.6019 19.9202 32.4005 19.8165 32.3015C19.7899 32.2715 19.7497 32.2501 19.7038 32.2416C19.526 32.2134 19.0848 32.3975 18.6345 32.7578C18.4537 32.9034 18.2899 33.0608 18.145 33.2284C17.5395 33.8901 17.0951 34.8615 16.7576 35.9196C16.746 35.9597 16.7344 35.9997 16.7241 36.0393C16.4587 37.0593 16.6938 38.0916 16.8761 38.8666C16.9405 39.0922 16.9939 39.2961 17.0493 39.4748C17.1691 39.8608 17.2812 40.1315 17.4165 40.2527L17.401 40.2938C17.3727 40.3665 17.3508 40.4338 17.3231 40.4917C17.3231 40.4967 17.3192 40.5016 17.3166 40.5066C16.8954 40.173 16.4771 39.8251 16.0619 39.4629C14.8508 38.3988 13.7491 37.2641 12.7666 36.069L12.7969 36.0111C12.8284 35.9547 12.8568 35.8839 12.8909 35.8132C12.9446 35.8263 13.0008 35.832 13.0571 35.83C13.3737 35.8168 13.6851 35.7626 13.9782 35.6697C14.2852 35.5799 14.5756 35.4596 14.8419 35.3119C15.727 34.8531 16.4825 34.0207 17.1157 32.9315C17.1376 32.8959 17.1595 32.8597 17.1801 32.8231C17.7598 31.7586 17.5022 30.5398 17.3237 29.6559C17.2432 29.3333 17.1743 29.0541 17.1099 28.825C17.0242 28.5162 16.9469 28.2995 16.8651 28.1931C16.8455 28.1599 16.8103 28.1335 16.7666 28.1193C16.5972 28.0698 16.1224 28.1955 15.602 28.4939C15.3922 28.6145 15.1969 28.7494 15.0184 28.8968C14.2796 29.4733 13.6342 30.3735 13.0758 31.3766C13.0558 31.4142 13.0358 31.4528 13.0172 31.4909C12.5373 32.4629 12.5495 33.5105 12.563 34.2989C12.5759 34.5285 12.5875 34.7368 12.6043 34.9204C12.6397 35.3163 12.6932 35.5974 12.7975 35.734C12.7891 35.7469 12.7814 35.7597 12.7737 35.7721C12.7344 35.834 12.7015 35.8919 12.6661 35.9423C12.5527 35.8021 12.4402 35.6612 12.3286 35.5197C11.7676 34.7908 11.2432 34.0286 10.7569 33.2408C10.2822 32.449 9.84808 31.63 9.4687 30.7892C9.45646 30.762 9.44487 30.7347 9.43327 30.7075L9.47256 30.6615C9.5183 30.612 9.56532 30.5462 9.61813 30.4799C9.66691 30.5015 9.72038 30.516 9.77594 30.5229C10.0872 30.5595 10.4041 30.5558 10.7138 30.5121C11.0384 30.4722 11.3548 30.3999 11.6548 30.2968C12.6423 29.986 13.6027 29.2897 14.5115 28.3222C14.5424 28.2906 14.5759 28.2589 14.603 28.2262C15.4558 27.2756 15.5221 26.0408 15.5833 25.1491C15.5904 24.8205 15.5962 24.5364 15.5943 24.3023C15.5943 23.9861 15.5743 23.7624 15.5221 23.6447C15.5117 23.6093 15.4843 23.5782 15.4455 23.5576C15.2928 23.4818 14.7949 23.5308 14.2056 23.7416C13.9682 23.8269 13.7412 23.9283 13.5273 24.0445C12.6513 24.4934 11.7804 25.2733 10.9676 26.168C10.9379 26.2022 10.9083 26.2363 10.88 26.271C10.1521 27.1474 9.88673 28.1752 9.69092 28.9492C9.64261 29.1759 9.59881 29.3818 9.5666 29.5639C9.4964 29.9568 9.47385 30.2409 9.54277 30.3913L9.50928 30.425C9.45839 30.4744 9.4133 30.5239 9.36886 30.566C8.65634 28.932 8.16 27.247 7.88739 25.5366C7.84444 25.2528 7.80666 24.9688 7.77402 24.6844L7.93054 24.5607C7.98272 24.5211 8.04004 24.4681 8.10252 24.4147C8.1422 24.4406 8.18757 24.4609 8.2365 24.4746C8.51088 24.5483 8.7993 24.5864 9.08996 24.5874C9.39339 24.5935 9.69656 24.5691 9.99172 24.5146C10.9579 24.3617 11.9833 23.8555 13.0191 23.0963C13.0545 23.0721 13.0893 23.0468 13.1234 23.0211C14.1076 22.2699 14.4419 21.1579 14.6944 20.3567C14.7737 20.0598 14.8426 19.8024 14.8915 19.5896C14.9598 19.3026 14.9933 19.0972 14.9721 18.9834C14.9706 18.9499 14.9526 18.9181 14.9218 18.8943C14.8001 18.8057 14.3376 18.785 13.756 18.8993C13.5228 18.9458 13.2955 19.0079 13.0764 19.0849C12.1817 19.3778 11.2188 19.9722 10.2829 20.6774C10.2487 20.7041 10.2146 20.7318 10.1811 20.7595C9.32635 21.4603 8.85743 22.3575 8.50638 23.036C8.4117 23.2339 8.32732 23.4165 8.25711 23.5778C8.10639 23.9243 8.02329 24.1801 8.05292 24.3256L8.01492 24.3518C7.94664 24.3988 7.8861 24.4434 7.82748 24.479L7.75276 24.5285C7.60221 23.0675 7.59425 21.5999 7.72893 20.138C7.77187 19.6431 7.83371 19.1522 7.91444 18.6652L8.07869 18.59C8.1431 18.5633 8.21138 18.5252 8.28674 18.4875C8.31559 18.5194 8.35158 18.547 8.39302 18.5692C8.62379 18.6911 8.87965 18.7823 9.14986 18.8389C9.43028 18.9032 9.72046 18.939 10.013 18.9453C10.9618 18.9889 12.0825 18.7157 13.298 18.2089C13.3386 18.1931 13.3791 18.1763 13.4197 18.1594C14.5791 17.6502 15.2561 16.6788 15.7534 15.982C15.9241 15.7207 16.0716 15.4945 16.1875 15.306C16.3447 15.0521 16.4452 14.867 16.4606 14.7572C16.4701 14.7257 16.4636 14.6926 16.4426 14.6646C16.3582 14.5582 15.9344 14.4498 15.3553 14.4444C15.122 14.4424 14.889 14.4565 14.659 14.4865C13.7308 14.5854 12.6403 14.9541 11.5383 15.4302C11.497 15.4485 11.4565 15.4678 11.4159 15.4866C10.3917 15.9746 9.66193 16.7198 9.11572 17.2825C8.96242 17.4508 8.82458 17.6027 8.70671 17.7393C8.45292 18.0337 8.29189 18.2549 8.27192 18.396L8.22812 18.4133C8.1489 18.444 8.07804 18.4737 8.0117 18.4955L7.93634 18.5222C8.13516 17.3245 8.43248 16.1378 8.82651 14.969C9.0249 14.382 9.24411 13.8078 9.48416 13.2463L9.56081 13.2191C9.62522 13.1973 9.70058 13.1647 9.7811 13.1335C9.8054 13.1673 9.83748 13.1975 9.87578 13.2226C10.0889 13.3622 10.3313 13.4732 10.5927 13.5507C10.863 13.6369 11.1469 13.6953 11.4371 13.7244C12.375 13.8426 13.5266 13.659 14.8033 13.2508C14.8458 13.2384 14.8883 13.2245 14.9321 13.2107C16.1559 12.7955 16.9559 11.8824 17.544 11.2277C17.7488 10.9803 17.926 10.768 18.0664 10.5898C18.2564 10.3493 18.3788 10.1731 18.411 10.0652C18.4246 10.0346 18.4226 10.0012 18.4052 9.97171C18.3356 9.85937 17.9286 9.71833 17.3534 9.66686C17.1216 9.64664 16.8879 9.64233 16.6551 9.654C15.7186 9.68023 14.5843 9.96033 13.4242 10.3468C13.3811 10.3617 13.3379 10.3775 13.2954 10.3933C12.2114 10.7977 11.3856 11.4821 10.7679 11.9982C10.5933 12.1536 10.4355 12.2952 10.2996 12.4204C10.0085 12.6935 9.8191 12.9004 9.77981 13.0394L9.73343 13.0528C9.66451 13.0736 9.60461 13.0929 9.5402 13.1082C9.94832 12.166 10.4191 11.2405 10.9508 10.3354C11.4854 9.4214 12.0619 8.56081 12.6577 7.75713L12.8426 7.72843C12.907 7.72051 12.9766 7.70418 13.0532 7.69033C13.0646 7.72319 13.0836 7.7542 13.1093 7.78188C13.2546 7.93421 13.432 8.06684 13.6342 8.17432C13.8416 8.29052 14.0682 8.38504 14.308 8.45541C15.0764 8.70284 16.1076 8.72907 17.3057 8.5816C17.345 8.57764 17.3849 8.57319 17.4249 8.56774C18.5798 8.40592 19.506 7.75367 20.1823 7.28799C20.4226 7.10984 20.6332 6.95593 20.7981 6.82528C21.0248 6.65059 21.1762 6.51994 21.2322 6.43285C21.2521 6.40873 21.2595 6.37977 21.2529 6.35169C21.2232 6.24529 20.9128 6.0607 20.4361 5.92659C20.244 5.87242 20.0459 5.83184 19.8442 5.80534C19.0384 5.68014 17.9962 5.74002 16.9031 5.88749L16.7807 5.90679C15.7501 6.08099 14.8613 6.53479 14.1965 6.87823C14.0033 6.98265 13.8339 7.07618 13.6845 7.16427C13.3624 7.35134 13.146 7.49831 13.0758 7.60966L13.0326 7.61412C12.9553 7.62203 12.8858 7.63094 12.8226 7.63391L12.7447 7.63935C13.0494 7.23257 13.3585 6.83864 13.6696 6.46204C14.259 5.74942 14.8535 5.0942 15.4371 4.49392C15.5782 4.54341 15.8983 4.50283 16.3389 4.39494C16.5162 4.35238 16.7116 4.29976 16.925 4.23708C17.649 4.01141 18.5514 3.6655 19.22 3.06719C19.2458 3.04294 19.2722 3.0177 19.298 2.99543C19.9659 2.3422 20.5469 1.69688 20.8735 1.14707C20.958 1.01286 21.0297 0.874088 21.088 0.731867C21.2303 0.385454 21.2361 0.117726 21.1401 0.0425044C21.113 0.022386 21.0773 0.0104419 21.0397 0.00885279C20.9108 -0.00896276 20.6699 0.000439891 20.3453 0.0340915C20.1038 0.0573507 19.8165 0.0949613 19.4925 0.143954C18.6191 0.299345 17.4751 0.555197 16.764 1.24357C16.7395 1.26732 16.7157 1.29306 16.6925 1.31533C15.9749 2.04032 15.4912 2.72424 15.3263 3.32502C15.2687 3.50675 15.2403 3.69323 15.2419 3.88027C15.2368 4.05554 15.2721 4.23013 15.3463 4.39593C15.3538 4.41056 15.3626 4.42478 15.3727 4.43849C14.7756 5.03779 14.1663 5.6935 13.5621 6.40711C13.2246 6.80549 12.889 7.22267 12.5585 7.65519C12.5585 7.64876 12.554 7.64232 12.5508 7.6349C12.5321 7.58888 12.5173 7.53592 12.4986 7.47753C12.4986 7.46714 12.4922 7.45625 12.489 7.44536C12.5991 7.3543 12.699 7.14596 12.811 6.84755C12.8626 6.70948 12.9147 6.55063 12.9727 6.37742C13.1479 5.77664 13.3759 4.97692 13.2123 4.17472C13.2059 4.14305 13.1994 4.11138 13.1917 4.07971C12.974 3.24386 12.6687 2.47581 12.2255 1.94432C12.1199 1.80971 11.9988 1.68268 11.8635 1.56474C11.5279 1.27178 11.1911 1.11936 11.0513 1.1342C11.0152 1.13984 10.9831 1.15553 10.9611 1.17825C10.8761 1.2505 10.7718 1.40589 10.6391 1.63155C10.5418 1.79882 10.4304 2.00419 10.3022 2.24075C9.98013 2.89349 9.52924 3.79367 9.75082 4.679C9.75855 4.70919 9.76693 4.73938 9.77659 4.76957C10.0342 5.68113 10.4368 6.41008 11.0178 6.86982C11.1903 7.01594 11.3872 7.14391 11.6033 7.25038C11.8071 7.35603 12.0324 7.43481 12.27 7.48347C12.312 7.49165 12.3557 7.494 12.3988 7.4904C12.4091 7.55028 12.4168 7.60867 12.4284 7.65519C12.4413 7.71161 12.4516 7.75664 12.4581 7.78386C11.8719 8.56081 11.3031 9.39072 10.7724 10.2716C10.2031 11.2165 9.69981 12.184 9.26451 13.1701C9.26274 13.1675 9.26123 13.1649 9.26 13.1622C9.23102 13.1127 9.2059 13.0528 9.17498 12.989C9.16983 12.9771 9.16403 12.9657 9.15823 12.9538C9.26902 12.84 9.34696 12.5941 9.42232 12.2452C9.45775 12.0833 9.49124 11.8988 9.5286 11.6964C9.62844 10.9991 9.75533 10.0717 9.43843 9.17793C9.42619 9.14328 9.41266 9.10765 9.39913 9.07301C9.01266 8.14759 8.5431 7.3068 7.95244 6.74709C7.81082 6.60452 7.6528 6.47202 7.4803 6.35119C7.05132 6.05426 6.64295 5.90976 6.48965 5.94341C6.44912 5.95274 6.41478 5.97364 6.39367 6.00181C6.30929 6.09089 6.21718 6.27795 6.10704 6.54617C6.02459 6.74412 5.93184 6.9876 5.82492 7.2682C5.56727 8.03922 5.2027 9.1032 5.60076 10.084C5.61493 10.1177 5.62975 10.1513 5.64521 10.183C6.08514 11.1901 6.66356 11.9769 7.39657 12.4416C7.61608 12.5919 7.86063 12.719 8.12378 12.8197C8.37175 12.9194 8.6398 12.9863 8.91669 13.0177C8.96641 13.0232 9.01701 13.0218 9.06612 13.0137C9.08867 13.081 9.10606 13.1458 9.12731 13.1978C9.15501 13.2701 9.17627 13.3255 9.18657 13.3532C8.96693 13.8614 8.76081 14.3796 8.57402 14.9091C8.15552 16.0964 7.83625 17.3031 7.61814 18.5217C7.58272 18.4875 7.54729 18.4504 7.50736 18.4103L7.47773 18.3802C7.54214 18.2465 7.52153 17.9937 7.46162 17.6438C7.43328 17.481 7.39721 17.2974 7.35405 17.0955C7.18401 16.4091 6.95341 15.4921 6.31316 14.7102C6.28804 14.679 6.26163 14.6483 6.23586 14.6181C5.51381 13.8189 4.74344 13.1211 3.96534 12.7207C3.77563 12.6166 3.57432 12.5255 3.36374 12.4486C2.84007 12.259 2.39756 12.2135 2.261 12.2808C2.22595 12.2981 2.20083 12.325 2.19079 12.356C2.14313 12.4609 2.12638 12.6599 2.12252 12.941C2.1193 13.1493 2.12252 13.4027 2.12767 13.6952C2.17727 14.4894 2.22944 15.5895 2.98371 16.4388C3.01011 16.4675 3.03717 16.4962 3.06486 16.5244C3.86808 17.3889 4.71961 18.012 5.59754 18.2916C5.86415 18.3848 6.14575 18.4504 6.4349 18.4866C6.71113 18.5266 6.99415 18.531 7.27225 18.4994C7.32187 18.4933 7.36966 18.4804 7.41331 18.4613C7.46033 18.5202 7.50156 18.5786 7.54214 18.6231C7.56082 18.6444 7.57692 18.6637 7.59173 18.6815C7.51058 19.1546 7.44423 19.6319 7.3927 20.1132C7.23674 21.5672 7.22038 23.0281 7.34375 24.484L7.2729 24.4345L7.23489 24.4082C7.26452 24.2628 7.18079 24.0079 7.03006 23.6605C6.9605 23.4992 6.87547 23.3185 6.78143 23.1186C6.43232 22.4416 5.9634 21.5444 5.10672 20.8422C5.07323 20.8149 5.04231 20.7877 5.00495 20.761C4.0684 20.0553 3.10544 19.461 2.21141 19.168C1.99152 19.0907 1.76328 19.0283 1.52928 18.9814C0.949576 18.8671 0.485166 18.8879 0.363428 18.9765C0.332393 19.0002 0.314207 19.032 0.312542 19.0656C0.291931 19.1794 0.324781 19.3848 0.393057 19.6718C0.446519 19.8856 0.516084 20.1439 0.594023 20.4408C0.847162 21.242 1.18146 22.354 2.16503 23.1052C2.19981 23.1305 2.23459 23.1547 2.26938 23.1805C3.30834 23.9396 4.33442 24.4459 5.29674 24.5988C5.59192 24.6531 5.89507 24.6776 6.1985 24.6715C6.48903 24.6707 6.77732 24.6324 7.05132 24.5582C7.10042 24.5447 7.146 24.5246 7.18594 24.4988C7.25035 24.5513 7.30381 24.6037 7.35599 24.6428C7.38519 24.9536 7.42104 25.2641 7.46355 25.5742C7.71117 27.2928 8.18112 28.9882 8.86645 30.6353L8.81878 30.613C8.81041 30.4537 8.65195 30.1968 8.39688 29.8519C8.27837 29.6915 8.13924 29.5134 7.98336 29.3164C7.42748 28.6538 6.68353 27.7759 5.58401 27.1697C5.54086 27.1459 5.49706 27.1202 5.45519 27.0994C4.26744 26.5016 3.08161 26.0255 2.05166 25.8592C1.79787 25.8125 1.53923 25.7831 1.27872 25.7711C0.629449 25.7439 0.143139 25.8409 0.0381477 25.9547C0.00982239 25.9835 -0.00350229 26.0193 0.00078873 26.0552C0.00916228 26.1789 0.101271 26.3917 0.251995 26.6857C0.363428 26.9034 0.509643 27.1657 0.671961 27.4691C1.1602 28.2792 1.81978 29.4065 3.07131 30.0454C3.11446 30.0672 3.15826 30.0879 3.20013 30.1087C4.5122 30.7471 5.74118 31.1193 6.8072 31.1252C7.13543 31.1355 7.464 31.1124 7.78433 31.0564C8.09289 31.0083 8.38892 30.9212 8.66033 30.7986C8.70837 30.7761 8.75089 30.7473 8.78593 30.7135C8.83682 30.7422 8.88448 30.7714 8.92957 30.7971C8.94632 30.8362 8.96242 30.8758 8.97917 30.9149C9.35404 31.7715 9.78174 32.6069 10.2519 33.4165C10.7331 34.2221 11.2548 35.0001 11.8146 35.7488C11.9254 35.8947 12.0374 36.039 12.1508 36.1819L12.1083 36.1705L12.0568 36.1556C12.0078 36.0007 11.7875 35.7721 11.45 35.4722C11.2935 35.3326 11.1112 35.1782 10.9096 35.0085C10.1966 34.4414 9.24454 33.6911 8.01106 33.2606C7.96275 33.2433 7.91379 33.2269 7.86484 33.2111C6.54891 32.8013 5.26518 32.5114 4.21268 32.5019C3.95097 32.4937 3.68882 32.5036 3.42944 32.5316C2.78532 32.6014 2.33443 32.7687 2.25907 32.8959C2.24167 32.9297 2.24167 32.9674 2.25907 33.0013C2.29901 33.1215 2.44265 33.317 2.66487 33.5823C2.82912 33.7802 3.03588 34.0158 3.27485 34.288C3.95826 35.0105 4.88965 36.02 6.27902 36.458C6.32733 36.4728 6.37564 36.4867 6.42395 36.5006C7.87193 36.9311 9.17111 37.1132 10.2197 36.9598C10.5444 36.9207 10.8609 36.8491 11.1614 36.747C11.4518 36.6535 11.7199 36.5238 11.955 36.363C11.9969 36.3339 12.0316 36.2992 12.0574 36.2605C12.1366 36.2892 12.2107 36.3194 12.2777 36.3417C13.252 37.5562 14.3471 38.7111 15.553 39.7959C16.0117 40.2064 16.4752 40.5991 16.9437 40.9742L16.8065 40.9638L16.7511 40.9594C16.6545 40.8184 16.3685 40.6377 15.946 40.4101C15.7527 40.3042 15.5247 40.1889 15.2754 40.0637C14.4117 39.647 13.2503 39.0977 11.917 38.9096L11.7592 38.8888C10.3531 38.7404 9.01653 38.6968 7.99173 38.8844C7.73539 38.9257 7.48429 38.9843 7.24133 39.0596C6.6423 39.2461 6.25648 39.4936 6.22427 39.6321C6.21746 39.6681 6.22874 39.7048 6.25583 39.7346C6.33248 39.8439 6.53409 40.0063 6.83554 40.222C7.05776 40.3829 7.3328 40.5729 7.65099 40.7926C8.5431 41.3652 9.76564 42.1684 11.2523 42.3356C11.3038 42.3411 11.3547 42.345 11.4062 42.349C12.9469 42.4975 14.2648 42.4297 15.2336 42.0852C15.5361 41.9868 15.8205 41.8582 16.0793 41.7027C16.3315 41.5577 16.5506 41.3816 16.7279 41.1816C16.7585 41.1455 16.7803 41.1054 16.7923 41.0633C16.8915 41.0787 16.9856 41.0965 17.0642 41.1049L17.1195 41.1118C17.9627 41.7804 18.8116 42.3931 19.6471 42.9498C20.6255 43.601 21.5788 44.1796 22.487 44.6898L22.4644 44.6927C22.3846 44.7036 22.2944 44.7096 22.1959 44.7185L22.1405 44.7234C22.0071 44.6012 21.6786 44.471 21.2026 44.3171C20.9823 44.2454 20.7298 44.1687 20.4509 44.085C19.4848 43.8193 18.1965 43.4704 16.8439 43.5036C16.7904 43.5036 16.7369 43.5065 16.6841 43.5095C15.2671 43.5897 13.9498 43.7668 13.0004 44.1162C12.7615 44.1985 12.5324 44.2967 12.3157 44.4097C11.7785 44.6913 11.4693 44.9956 11.4784 45.1347C11.482 45.1709 11.5029 45.2049 11.537 45.2302C11.642 45.3247 11.8835 45.4504 12.2358 45.6127C12.4935 45.734 12.8155 45.875 13.1898 46.0383C14.2204 46.453 15.6374 47.0394 17.1344 46.9608C17.1859 46.9578 17.2374 46.9538 17.2883 46.9499C18.8342 46.843 20.105 46.5634 20.9598 46.0695C21.2284 45.9239 21.4709 45.7519 21.6812 45.5578C21.8879 45.3754 22.0536 45.1679 22.1714 44.9436C22.1919 44.9034 22.2028 44.8607 22.2036 44.8175C22.3047 44.8175 22.402 44.8175 22.4812 44.814L22.6957 44.8061C22.9759 44.961 23.2529 45.1099 23.5234 45.2515C24.116 45.5786 24.7021 45.8453 25.2277 46.1155L26.7124 46.8034L27.9362 47.3299C28.2924 47.4829 28.5978 47.5967 28.8438 47.6976L29.6006 48L30 47.4012L29.2387 47.1043C28.992 47.0063 28.6789 46.8925 28.3292 46.7465Z" stroke="#FF6B00" stroke-width="2" mask="url(#path-1-inside-1_2_233)"/>
</g>
</svg>
