<svg width="46" height="46" viewBox="0 0 46 46" fill="none" xmlns="http://www.w3.org/2000/svg">
<circle cx="23" cy="23" r="23" fill="#FF6B00"/>
<g clip-path="url(#clip0_2_116)">
<path d="M10.1714 26.5599C10.1714 26.5599 10.4844 25.2919 9.43245 24.1929C8.37645 23.0919 7.05045 23.0879 7.05045 23.0879C7.05045 23.0879 6.72045 24.5769 7.74845 25.6499C8.77545 26.7199 10.1714 26.5599 10.1714 26.5599Z" fill="white"/>
<path d="M12.5 26.3304C12.5 26.3304 13.733 25.6614 13.959 24.1914C14.186 22.7254 13.059 21.6934 13.059 21.6934C13.059 21.6934 11.979 22.4614 11.746 23.9674C11.515 25.4744 12.5 26.3304 12.5 26.3304Z" fill="white"/>
<path d="M14.3545 30.0294C14.3545 30.0294 15.4905 29.2024 15.5235 27.7174C15.5535 26.2344 14.3025 25.3594 14.3025 25.3594C14.3025 25.3594 13.3315 26.2594 13.2985 27.7844C13.2655 29.3084 14.3545 30.0294 14.3545 30.0294Z" fill="white"/>
<path d="M18.0769 29.7545C17.9689 28.2755 16.6409 27.5215 16.6409 27.5215C16.6409 27.5215 15.7589 28.5085 15.8689 30.0295C15.9789 31.5505 17.1309 32.1655 17.1309 32.1655C17.1309 32.1655 18.1839 31.2345 18.0769 29.7545Z" fill="white"/>
<path d="M20.6175 34.0092C20.6175 34.0092 21.3605 32.8182 20.8315 31.4292C20.3025 30.0412 18.8125 29.7012 18.8125 29.7012C18.8125 29.7012 18.2515 30.9032 18.7935 32.3282C19.3375 33.7512 20.6175 34.0092 20.6175 34.0092Z" fill="white"/>
<path d="M10.6855 23.3124C10.6855 23.3124 11.6515 22.4334 11.3845 20.9334C11.1175 19.4344 10.0185 18.6914 10.0185 18.6914C10.0185 18.6914 8.91746 19.7494 9.17746 21.2124C9.43746 22.6724 10.6855 23.3124 10.6855 23.3124Z" fill="white"/>
<path d="M11.4434 29.4368C11.4434 29.4368 11.3694 28.1318 10.0394 27.3918C8.70644 26.6538 7.43744 27.0368 7.43744 27.0368C7.43744 27.0368 7.56144 28.5578 8.85944 29.2788C10.1594 29.9998 11.4434 29.4368 11.4434 29.4368Z" fill="white"/>
<path d="M13.688 31.9694C13.688 31.9694 13.326 30.7144 11.865 30.2884C10.401 29.8624 9.24902 30.5184 9.24902 30.5184C9.24902 30.5184 9.71002 31.9734 11.135 32.3894C12.562 32.8064 13.688 31.9694 13.688 31.9694Z" fill="white"/>
<path d="M16.1995 33.7726C16.1995 33.7726 15.4754 32.6866 13.9534 32.7236C12.4294 32.7606 11.5294 33.7336 11.5294 33.7336C11.5294 33.7336 12.4094 34.9836 13.8924 34.9466C15.3774 34.9126 16.1995 33.7726 16.1995 33.7726Z" fill="white"/>
<path d="M17.2715 34.5086C15.7635 34.7296 14.9875 35.8026 14.9875 35.8026C14.9875 35.8026 16.0085 36.9386 17.4785 36.7256C18.9495 36.5116 19.6265 35.2836 19.6265 35.2836C19.6265 35.2836 18.7785 34.2916 17.2715 34.5086Z" fill="white"/>
<path d="M11.1825 24.0583L10.4555 24.0293C10.4535 24.1093 10.2725 31.9843 22.1555 35.5343L22.3635 34.8383C11.0485 31.4573 11.1695 24.3573 11.1825 24.0583Z" fill="white"/>
<path d="M35.9777 26.5814C35.9777 26.5814 37.3737 26.7414 38.4007 25.6694C39.4287 24.5974 39.0987 23.1074 39.0987 23.1074C39.0987 23.1074 37.7727 23.1134 36.7157 24.2134C35.6627 25.3144 35.9777 26.5814 35.9777 26.5814Z" fill="white"/>
<path d="M32.1882 24.2118C32.4142 25.6808 33.6472 26.3508 33.6472 26.3508C33.6472 26.3508 34.6312 25.4958 34.4022 23.9898C34.1692 22.4828 33.0892 21.7158 33.0892 21.7158C33.0892 21.7158 31.9622 22.7458 32.1882 24.2118Z" fill="white"/>
<path d="M31.8465 25.3789C31.8465 25.3789 30.5955 26.2539 30.6245 27.7369C30.6575 29.2199 31.7935 30.0489 31.7935 30.0489C31.7935 30.0489 32.8825 29.3269 32.8505 27.8039C32.8165 26.2819 31.8465 25.3789 31.8465 25.3789Z" fill="white"/>
<path d="M28.071 29.7751C27.965 31.2541 29.017 32.1831 29.017 32.1831C29.017 32.1831 30.167 31.5701 30.279 30.0481C30.388 28.5271 29.507 27.5391 29.507 27.5391C29.507 27.5391 28.181 28.2941 28.071 29.7751Z" fill="white"/>
<path d="M25.3161 31.4497C24.7871 32.8377 25.5301 34.0287 25.5301 34.0287C25.5301 34.0287 26.8091 33.7707 27.3531 32.3487C27.8951 30.9237 27.3331 29.7207 27.3331 29.7207C27.3331 29.7207 25.8471 30.0617 25.3161 31.4497Z" fill="white"/>
<path d="M35.4637 23.3329C35.4637 23.3329 36.7117 22.6929 36.9727 21.2319C37.2327 19.7689 36.1307 18.7109 36.1307 18.7109C36.1307 18.7109 35.0307 19.4539 34.7657 20.9529C34.4977 22.4539 35.4637 23.3329 35.4637 23.3329Z" fill="white"/>
<path d="M36.1071 27.4126C34.7771 28.1516 34.7031 29.4566 34.7031 29.4566C34.7031 29.4566 35.9881 30.0206 37.2871 29.2996C38.5851 28.5786 38.7091 27.0566 38.7091 27.0566C38.7091 27.0566 37.4401 26.6726 36.1071 27.4126Z" fill="white"/>
<path d="M34.281 30.3101C32.82 30.7361 32.458 31.9911 32.458 31.9911C32.458 31.9911 33.586 32.8271 35.013 32.4121C36.438 31.9971 36.899 30.5411 36.899 30.5411C36.899 30.5411 35.745 29.8831 34.281 30.3101Z" fill="white"/>
<path d="M32.1945 32.7451C30.6725 32.7081 29.9485 33.7951 29.9485 33.7951C29.9485 33.7951 30.7695 34.9341 32.2555 34.9691C33.7385 35.0051 34.6185 33.7561 34.6185 33.7561C34.6185 33.7561 33.7205 32.7831 32.1945 32.7451Z" fill="white"/>
<path d="M28.8765 34.5291C27.3685 34.3121 26.5225 35.3021 26.5225 35.3021C26.5225 35.3021 27.2005 36.5311 28.6695 36.7451C30.1405 36.9581 31.1605 35.8211 31.1605 35.8211C31.1605 35.8211 30.3845 34.7501 28.8765 34.5291Z" fill="white"/>
<path d="M35.6922 24.0479L34.9642 24.0769C34.9772 24.3779 35.0982 31.4749 23.7832 34.8559L23.9912 35.5509C35.8752 32.0029 35.6942 24.1279 35.6922 24.0479Z" fill="white"/>
<path d="M28.7721 25.214L27.9461 18.495L32.4441 13.924L25.9971 13.062L23.0771 7.40398V7.37598L20.1511 13.042L13.7051 13.903L18.2031 18.475L17.3781 25.193L23.0721 22.099V22.117L28.7721 25.214Z" fill="white"/>
</g>
<defs>
<clipPath id="clip0_2_116">
<rect width="32.148" height="32.148" fill="white" transform="translate(7 7)"/>
</clipPath>
</defs>
</svg>
