<svg width="46" height="46" viewBox="0 0 46 46" fill="none" xmlns="http://www.w3.org/2000/svg">
<circle cx="23" cy="23" r="23" fill="#FF6B00"/>
<g clip-path="url(#clip0_2_144)">
<path d="M11.6334 27.5437C11.6334 27.5437 11.8874 26.4943 11.0129 25.5894C10.1359 24.6845 9.03949 24.6836 9.03949 24.6836C9.03949 24.6836 8.77236 25.9183 9.6277 26.8006C10.4813 27.6821 11.6334 27.5437 11.6334 27.5437Z" fill="white"/>
<path d="M13.5586 27.3436C13.5586 27.3436 14.5749 26.7849 14.7559 25.5711C14.936 24.3564 14.0015 23.5098 14.0015 23.5098C14.0015 23.5098 13.1105 24.1484 12.926 25.3945C12.7398 26.6405 13.5586 27.3436 13.5586 27.3436Z" fill="white"/>
<path d="M15.1066 30.3942C15.1066 30.3942 16.042 29.7068 16.0637 28.4799C16.0829 27.2521 15.0457 26.5352 15.0457 26.5352C15.0457 26.5352 14.2469 27.2843 14.226 28.5452C14.2034 29.8025 15.1066 30.3942 15.1066 30.3942Z" fill="white"/>
<path d="M17.4106 32.1488C17.4106 32.1488 18.2764 31.377 18.1824 30.1536C18.0867 28.9302 16.9877 28.3115 16.9877 28.3115C16.9877 28.3115 16.2611 29.1329 16.3586 30.3903C16.4543 31.6441 17.4106 32.1488 17.4106 32.1488Z" fill="white"/>
<path d="M20.299 33.661C20.299 33.661 20.9072 32.6717 20.4643 31.5275C20.0214 30.3833 18.7893 30.1074 18.7893 30.1074C18.7893 30.1074 18.3308 31.1037 18.785 32.2784C19.2418 33.4531 20.299 33.661 20.299 33.661Z" fill="white"/>
<path d="M12.0462 24.8572C12.0462 24.8572 12.8389 24.1263 12.6127 22.8872C12.3864 21.6482 11.4737 21.0391 11.4737 21.0391C11.4737 21.0391 10.567 21.9179 10.7889 23.1248C11.0108 24.3325 12.0462 24.8572 12.0462 24.8572Z" fill="white"/>
<path d="M12.6984 29.9156C12.6984 29.9156 12.6323 28.8392 11.5289 28.2319C10.4239 27.6263 9.37711 27.9473 9.37711 27.9473C9.37711 27.9473 9.48587 29.2047 10.5605 29.7964C11.6368 30.3881 12.6984 29.9156 12.6984 29.9156Z" fill="white"/>
<path d="M14.5652 32.0021C14.5652 32.0021 14.2606 30.9667 13.0503 30.6203C11.8391 30.2749 10.8906 30.8213 10.8906 30.8213C10.8906 30.8213 11.2761 32.023 12.4569 32.3606C13.6376 32.6974 14.5652 32.0021 14.5652 32.0021Z" fill="white"/>
<path d="M16.6459 33.4833C16.6459 33.4833 16.0429 32.5879 14.7839 32.6262C13.5248 32.661 12.7852 33.4702 12.7852 33.4702C12.7852 33.4702 13.5169 34.4987 14.7421 34.4639C15.9707 34.4274 16.6459 33.4833 16.6459 33.4833Z" fill="white"/>
<path d="M17.5372 34.0874C16.2912 34.2745 15.6525 35.1664 15.6525 35.1664C15.6525 35.1664 16.5035 36.0992 17.7156 35.9173C18.9303 35.7355 19.4872 34.7165 19.4872 34.7165C19.4872 34.7165 18.7806 33.9004 17.5372 34.0874Z" fill="white"/>
<path d="M12.4591 25.4703L11.8596 25.4512C11.8561 25.5156 11.7395 32.0276 21.579 34.9139L21.7469 34.3378C12.3791 31.5873 12.4504 25.7192 12.4591 25.4703Z" fill="white"/>
<path d="M34.3673 27.5437C34.3673 27.5437 35.5202 27.6821 36.373 26.8006C37.2274 25.9183 36.9612 24.6836 36.9612 24.6836C36.9612 24.6836 35.8648 24.6845 34.9877 25.5894C34.1132 26.4943 34.3673 27.5437 34.3673 27.5437Z" fill="white"/>
<path d="M31.2457 25.5711C31.4267 26.7858 32.443 27.3436 32.443 27.3436C32.443 27.3436 33.2609 26.6388 33.0764 25.3945C32.892 24.1484 32.0018 23.5098 32.0018 23.5098C32.0018 23.5098 31.0656 24.3564 31.2457 25.5711Z" fill="white"/>
<path d="M29.9388 28.4808C29.9588 29.7077 30.8959 30.3951 30.8959 30.3951C30.8959 30.3951 31.7982 29.8034 31.7774 28.5452C31.7573 27.2852 30.9586 26.5352 30.9586 26.5352C30.9586 26.5352 29.9187 27.253 29.9388 28.4808Z" fill="white"/>
<path d="M27.8204 30.1527C27.7273 31.3761 28.5931 32.1479 28.5931 32.1479C28.5931 32.1479 29.5485 31.6441 29.6451 30.3885C29.7417 29.1338 29.0151 28.3115 29.0151 28.3115C29.0151 28.3115 27.9153 28.9293 27.8204 30.1527Z" fill="white"/>
<path d="M25.5363 31.5265C25.0934 32.6699 25.7017 33.6601 25.7017 33.6601C25.7017 33.6601 26.7606 33.4521 27.2148 32.2774C27.6682 31.1027 27.2096 30.1064 27.2096 30.1064C27.2096 30.1064 25.9801 30.3823 25.5363 31.5265Z" fill="white"/>
<path d="M35.2113 23.1266C35.4332 21.918 34.5265 21.04 34.5265 21.04C34.5265 21.04 33.6138 21.65 33.3875 22.8882C33.1613 24.1264 33.9531 24.8582 33.9531 24.8582C33.9531 24.8582 34.9912 24.3326 35.2113 23.1266Z" fill="white"/>
<path d="M34.4722 28.2322C33.368 28.8387 33.3027 29.9159 33.3027 29.9159C33.3027 29.9159 34.3634 30.3884 35.4389 29.7967C36.5135 29.2059 36.6223 27.9477 36.6223 27.9477C36.6223 27.9477 35.5773 27.6257 34.4722 28.2322Z" fill="white"/>
<path d="M32.9525 30.6197C31.7404 30.9652 31.4376 32.0015 31.4376 32.0015C31.4376 32.0015 32.366 32.6976 33.5468 32.36C34.7275 32.0224 35.113 30.8207 35.113 30.8207C35.113 30.8207 34.1637 30.2734 32.9525 30.6197Z" fill="white"/>
<path d="M31.2174 32.6261C29.9592 32.5887 29.3553 33.4832 29.3553 33.4832C29.3553 33.4832 30.0288 34.4273 31.2592 34.463C32.4843 34.4987 33.2161 33.4684 33.2161 33.4684C33.2161 33.4684 32.4765 32.6618 31.2174 32.6261Z" fill="white"/>
<path d="M28.4656 34.0874C27.2204 33.9003 26.5156 34.7174 26.5156 34.7174C26.5156 34.7174 27.0734 35.7354 28.2872 35.9182C29.5011 36.1 30.3503 35.1672 30.3503 35.1672C30.3503 35.1672 29.7116 34.2754 28.4656 34.0874Z" fill="white"/>
<path d="M34.1433 25.4502L33.5438 25.4693C33.5516 25.7182 33.6229 31.5864 24.2568 34.336L24.4248 34.912C34.2625 32.0267 34.1459 25.5155 34.1433 25.4502Z" fill="white"/>
<path d="M26.8421 27.6207H26.0189C26.0189 26.8498 26.0189 25.8308 26.0189 25.595C24.5188 25.18 24.2891 22.5661 24.2612 22.1815H24.7668V20.2176C25.1096 20.0775 25.6439 19.733 26.1642 19.1239L27.0709 20.1332L28.0681 19.237L27.2867 18.3642C28.1481 18.6514 29.5604 18.9176 30.6628 18.1423C31.888 17.2774 32.3135 15.4241 31.9228 12.6344L31.8427 12.0566L23.0004 12.0645L14.1599 12.0575L14.079 12.6353C13.6883 15.4249 14.1138 17.2783 15.3398 18.1432C16.4414 18.9185 17.8536 18.6522 18.7159 18.3651L17.9336 19.2378L18.9308 20.1341L19.8375 19.1247C20.3587 19.7338 20.8938 20.0784 21.2349 20.2185V22.1815H21.7405C21.7135 22.5652 21.4829 25.1809 19.9828 25.595C19.9828 25.8308 19.9828 26.8489 19.9828 27.6207H19.1588V28.5987H22.99H23.01H26.8403L26.8421 27.6207ZM27.6635 13.3966L30.6628 13.3993C30.8551 15.2927 30.5906 16.5491 29.8893 17.0451C29.1549 17.5655 27.9402 17.2148 27.3311 16.9529C27.62 16.0157 27.767 14.8393 27.6635 13.3966ZM16.1098 17.0442C15.4094 16.5483 15.1457 15.2918 15.3372 13.3984L18.3365 13.3958C18.233 14.8385 18.38 16.0149 18.6689 16.9511C18.0607 17.2139 16.8451 17.5646 16.1098 17.0442Z" fill="white"/>
</g>
<defs>
<clipPath id="clip0_2_144">
<rect width="28" height="28" fill="white" transform="translate(9 10)"/>
</clipPath>
</defs>
</svg>
