<svg width="46" height="46" viewBox="0 0 46 46" fill="none" xmlns="http://www.w3.org/2000/svg">
<circle cx="23" cy="23" r="23" fill="#FF6B00"/>
<g clip-path="url(#clip0_2_160)">
<path d="M24.4483 9C23.9554 9 23.4707 9.03669 22.9928 9.10138C22.4946 9.03476 22.021 9 21.5517 9C17.9977 9 14.7926 10.7239 12.5434 13.4723C12.5208 13.4926 12.5043 13.5167 12.486 13.5408C11.7691 14.4286 11.1531 15.4226 10.6549 16.4982C10.6423 16.5219 10.6312 16.545 10.6221 16.5706C10.2788 17.3223 9.99255 18.1121 9.77241 18.9347C9.75069 18.981 9.74103 19.0317 9.73476 19.0843C9.41565 20.3279 9.24138 21.641 9.24138 23C9.24138 25.1261 9.66234 27.1416 10.4111 28.9481C10.4179 28.9674 10.4241 28.9857 10.4333 29.0041C10.8823 30.0748 11.4471 31.0703 12.1099 31.9706C12.1268 31.9938 12.1408 32.0184 12.1616 32.0382C12.8326 32.9386 13.6017 33.7404 14.4499 34.424C14.474 34.4506 14.503 34.4703 14.5329 34.4911C16.5252 36.0707 18.9443 37 21.5517 37C22.021 37 22.4946 36.9652 22.9928 36.8986C23.4707 36.9633 23.9554 37 24.4483 37C31.2363 37 36.7586 30.7198 36.7586 23C36.7586 15.2802 31.2363 9 24.4483 9ZM32.7599 18.7527C33.0124 18.6648 33.2866 18.8005 33.373 19.053C33.4802 19.3648 33.5753 19.6868 33.6564 20.0088C33.7216 20.2676 33.5647 20.5297 33.3059 20.5949C33.2663 20.605 33.2268 20.6094 33.1877 20.6094C32.9719 20.6094 32.7754 20.4636 32.7199 20.2444C32.645 19.948 32.5577 19.6521 32.4592 19.3658C32.3732 19.1138 32.5074 18.8391 32.7599 18.7527ZM11.6204 29.2759H13.4491C13.5249 29.4468 13.6026 29.6162 13.6842 29.7832C13.7194 29.8552 13.7561 29.9261 13.7928 29.9976C13.8918 30.1917 13.9941 30.3823 14.1008 30.5701C14.1404 30.6401 14.1786 30.7111 14.2196 30.7806C14.305 30.925 14.3943 31.0664 14.4841 31.2074H12.753C12.3267 30.6054 11.9492 29.959 11.6204 29.2759ZM11.3983 17.2069H13.2459C13.1614 17.4179 13.0812 17.6312 13.0054 17.8475C12.9847 17.9074 12.9634 17.9668 12.9432 18.0266C12.8737 18.2342 12.809 18.4437 12.7477 18.6552H10.862C11.0155 18.1574 11.1951 17.6747 11.3983 17.2069ZM13.1155 14.3103H14.8066C14.7477 14.3948 14.6883 14.4788 14.6309 14.5648C14.4885 14.7786 14.3509 14.9963 14.2196 15.2194C14.179 15.2884 14.1404 15.3599 14.1008 15.4299C13.9941 15.6177 13.8913 15.8088 13.7928 16.0024C13.7566 16.0739 13.7194 16.1443 13.6842 16.2168C13.6803 16.225 13.676 16.2332 13.6721 16.2414H11.8623C12.2277 15.5525 12.6487 14.908 13.1155 14.3103ZM20.9637 13.9377C20.8932 13.9734 20.8189 13.9903 20.745 13.9903C20.5693 13.9903 20.3999 13.8942 20.3144 13.7267C20.1932 13.4892 20.2874 13.1986 20.5254 13.0774C20.8261 12.9239 21.137 12.7868 21.4503 12.6694C21.6994 12.5763 21.9785 12.7023 22.0717 12.9523C22.1653 13.2019 22.0383 13.48 21.7888 13.5737C21.5097 13.6784 21.2321 13.8006 20.9637 13.9377ZM21.1935 32.7203C21.1086 32.8879 20.9386 32.9844 20.7624 32.9844C20.689 32.9844 20.6142 32.9675 20.5442 32.9323C20.2473 32.7817 19.9533 32.6112 19.6709 32.4263C19.4479 32.2806 19.3856 31.9812 19.5314 31.7582C19.6781 31.5357 19.9765 31.4729 20.2 31.6187C20.4525 31.7843 20.7156 31.9368 20.9816 32.0715C21.2191 32.1922 21.3142 32.4828 21.1935 32.7203ZM15.5868 25.3848C15.8446 25.3192 16.1077 25.478 16.1719 25.7368C16.2457 26.0327 16.3326 26.3286 16.4306 26.6154C16.5166 26.8679 16.3819 27.1421 16.1294 27.228C16.0777 27.2459 16.0251 27.2541 15.9734 27.2541C15.7726 27.2541 15.5848 27.1276 15.5168 26.9268C15.4101 26.6139 15.3154 26.2919 15.2353 25.9699C15.1706 25.7112 15.328 25.4495 15.5868 25.3848ZM14.8737 23.0101V23C14.8737 22.6708 14.8868 22.3396 14.9123 22.0166C14.9336 21.7511 15.1648 21.5541 15.4318 21.5734C15.6978 21.5947 15.8957 21.8274 15.875 22.0929C15.8513 22.3912 15.8392 22.6963 15.8392 23C15.8392 23.2665 15.623 23.4881 15.3565 23.4881C15.09 23.4881 14.8737 23.2771 14.8737 23.0101ZM16.4239 19.4039C16.3553 19.6052 16.168 19.7317 15.9667 19.7317C15.9155 19.7317 15.8629 19.723 15.8117 19.7061C15.5592 19.6202 15.4241 19.3465 15.5095 19.0935C15.6162 18.7797 15.7374 18.4664 15.8701 18.1628C15.9773 17.918 16.2612 17.8074 16.5059 17.9137C16.7502 18.0203 16.8617 18.3052 16.755 18.5494C16.6329 18.8285 16.5219 19.1162 16.4239 19.4039ZM16.9728 28.937C17.1934 28.7878 17.4937 28.8457 17.6428 29.0673C17.8132 29.3198 17.9962 29.566 18.1869 29.7987C18.3559 30.0048 18.3259 30.309 18.1198 30.4784C18.03 30.5518 17.9214 30.588 17.8137 30.588C17.6742 30.588 17.5357 30.5277 17.4401 30.4113C17.2306 30.1554 17.0292 29.8851 16.8419 29.6075C16.6937 29.3864 16.7517 29.0861 16.9728 28.937ZM18.1743 16.2172C18.0788 16.3341 17.9402 16.3944 17.8002 16.3944C17.6926 16.3944 17.5849 16.3587 17.4951 16.2853C17.2885 16.1163 17.2581 15.8127 17.4266 15.6061C17.6394 15.3449 17.8659 15.0943 18.0981 14.8602C18.2868 14.6714 18.5919 14.6705 18.7812 14.8583C18.9704 15.0466 18.9714 15.3517 18.7831 15.5414C18.5726 15.7528 18.3679 15.9802 18.1743 16.2172ZM10.2069 23C10.2069 22.6746 10.2243 22.3541 10.2446 22.0345H12.1693C12.1688 22.0422 12.1688 22.0499 12.1683 22.0577C12.1505 22.3695 12.1379 22.6828 12.1379 23C12.1379 23.1617 12.1437 23.322 12.1486 23.4828H10.2257C10.2204 23.3215 10.2069 23.1627 10.2069 23ZM12.2036 24.4483C12.2219 24.6515 12.2456 24.8533 12.2717 25.0541C12.2736 25.0686 12.2746 25.0836 12.2765 25.0986C12.3122 25.367 12.3557 25.633 12.4044 25.8966H10.5004C10.4063 25.4225 10.3319 24.9402 10.2841 24.4483H12.2036ZM12.5029 19.6207C12.4903 19.6777 12.4797 19.7356 12.4681 19.7926C12.4551 19.8563 12.4416 19.9195 12.429 19.9832C12.3701 20.2859 12.318 20.5915 12.277 20.9014C12.275 20.9159 12.2741 20.9309 12.2721 20.9459C12.2663 20.9869 12.263 21.0279 12.2577 21.069H10.3416C10.4053 20.5775 10.4859 20.0928 10.5965 19.6207H12.5029ZM12.6183 26.8621C12.6332 26.921 12.6472 26.9808 12.6627 27.0392C12.6685 27.0605 12.6733 27.0827 12.6791 27.1039C12.7588 27.3979 12.8481 27.6871 12.9437 27.9729C12.9639 28.0332 12.9852 28.0921 13.0059 28.152C13.0238 28.2051 13.0417 28.2582 13.0605 28.3103H11.2004C11.0174 27.8416 10.8601 27.3579 10.7259 26.8621H12.6183ZM23.0145 33.277C23.0463 33.0119 23.2882 32.8265 23.5513 32.8546C23.8468 32.8898 24.1485 32.9077 24.4483 32.9077C24.7148 32.9077 24.9518 33.1239 24.9518 33.3904C24.9518 33.6569 24.7563 33.8732 24.4898 33.8732H24.4483C24.1103 33.8732 23.7695 33.8529 23.4364 33.8133C23.1719 33.7819 22.9826 33.5415 23.0145 33.277ZM25.3829 13.1459C25.3641 13.1459 25.3452 13.145 25.3264 13.1426C25.0358 13.1088 24.7403 13.0919 24.4483 13.0919C24.1818 13.0919 23.9554 12.8756 23.9554 12.6091C23.9554 12.3426 24.161 12.1263 24.428 12.1263H24.4483C24.7775 12.1263 25.1101 12.1457 25.4374 12.1838C25.702 12.2142 25.8922 12.4541 25.8613 12.7187C25.8328 12.9644 25.6243 13.1459 25.3829 13.1459ZM19.3503 10.2619C19.1906 10.345 19.0327 10.4319 18.8768 10.5221C18.7894 10.5728 18.7015 10.6216 18.6156 10.6747C18.4819 10.7568 18.351 10.8437 18.2207 10.931H17.2914C17.9972 10.6008 18.7339 10.3406 19.5019 10.1789C19.4503 10.2045 19.4015 10.2354 19.3503 10.2619ZM15.6292 11.8966H16.9626C16.8429 12.0013 16.7232 12.1066 16.6068 12.2161C16.5098 12.3079 16.4157 12.403 16.321 12.4981C16.2254 12.5941 16.1308 12.6917 16.0381 12.7906C15.9488 12.8857 15.8595 12.9803 15.7726 13.0783C15.6954 13.1652 15.6215 13.2555 15.5467 13.3448H13.9526C14.4711 12.8056 15.0306 12.3194 15.6292 11.8966ZM13.5012 32.1724H15.1581C15.2126 32.2439 15.2667 32.3153 15.3227 32.3853C15.4685 32.5688 15.6186 32.7474 15.7726 32.9217C15.859 33.0197 15.9488 33.1143 16.0381 33.2094C16.1313 33.3088 16.2259 33.4063 16.322 33.5024C16.3606 33.541 16.3973 33.5826 16.4364 33.6207H14.9843C14.4537 33.1867 13.9579 32.702 13.5012 32.1724ZM19.5014 35.8211C18.3945 35.5879 17.3483 35.1602 16.378 34.5862H17.5458C17.6076 34.634 17.6713 34.6789 17.7336 34.7252C17.8335 34.7996 17.9334 34.8744 18.0353 34.9454C18.225 35.0777 18.4186 35.2046 18.6151 35.3253C18.701 35.3779 18.7889 35.4272 18.8763 35.4779C19.0322 35.5681 19.1901 35.655 19.3499 35.7381C19.4015 35.7646 19.4503 35.7955 19.5014 35.8211ZM28.391 32.9125C28.0902 33.067 27.7793 33.2046 27.467 33.3223C27.411 33.3436 27.3535 33.3537 27.2966 33.3537C27.1015 33.3537 26.9176 33.2345 26.8447 33.0409C26.7506 32.7913 26.8766 32.5128 27.1261 32.4191C27.4042 32.3143 27.6813 32.1912 27.9497 32.0537C28.1868 31.931 28.4779 32.0252 28.5995 32.2627C28.7221 32.4997 28.628 32.7908 28.391 32.9125ZM29.3483 14.2297C29.2556 14.3717 29.1011 14.4489 28.9432 14.4489C28.853 14.4489 28.7617 14.4238 28.6801 14.3707C28.4277 14.2061 28.1646 14.0545 27.8976 13.9198C27.6596 13.7996 27.564 13.5094 27.6842 13.2714C27.8044 13.0344 28.0946 12.9379 28.3326 13.0581C28.6309 13.2087 28.9249 13.3781 29.2073 13.5616C29.4308 13.7074 29.4936 14.0067 29.3483 14.2297ZM31.484 30.377C31.2711 30.6387 31.0457 30.8902 30.8134 31.1243C30.7193 31.2194 30.5948 31.2672 30.4707 31.2672C30.3481 31.2672 30.225 31.2204 30.1308 31.1272C29.9416 30.9394 29.9401 30.6339 30.1279 30.4446C30.3379 30.2332 30.5417 30.0053 30.7348 29.7678C30.9032 29.5612 31.2074 29.5293 31.414 29.6978C31.6206 29.8658 31.652 30.1699 31.484 30.377ZM31.6428 17.1282C31.4879 17.1282 31.3358 17.0539 31.2426 16.9163C31.0717 16.6643 30.8883 16.4186 30.6971 16.1863C30.5277 15.9807 30.5571 15.6761 30.7628 15.5066C30.9684 15.3367 31.273 15.3666 31.4425 15.5723C31.653 15.8277 31.8548 16.0975 32.0426 16.3751C32.1922 16.5957 32.1343 16.896 31.9132 17.0457C31.8301 17.1017 31.736 17.1282 31.6428 17.1282ZM33.3938 26.8857C33.2876 27.201 33.1669 27.5148 33.0351 27.8174C32.9559 27.999 32.7783 28.1076 32.5924 28.1076C32.5282 28.1076 32.4626 28.0946 32.3998 28.0675C32.1555 27.9608 32.0435 27.6765 32.1497 27.4322C32.2704 27.1546 32.381 26.8674 32.4785 26.5782C32.5634 26.3262 32.8372 26.1896 33.0901 26.2746C33.3431 26.359 33.4792 26.6328 33.3938 26.8857ZM33.9861 23.9621C33.9663 24.2151 33.7549 24.4077 33.5053 24.4077C33.4928 24.4077 33.4802 24.4072 33.4677 24.4063C33.2017 24.386 33.0032 24.1538 33.0235 23.8878C33.0462 23.5952 33.0578 23.2964 33.0578 23.0005C33.0578 22.734 33.2741 22.5023 33.5406 22.5023C33.807 22.5023 34.0233 22.7026 34.0233 22.9691V23C34.0228 23.321 34.0108 23.6445 33.9861 23.9621Z" fill="white"/>
</g>
<path d="M20.4885 27L26.112 18.7647H27.512L21.8885 27H20.4885ZM21.2062 23.2118C20.8062 23.2118 20.4532 23.1216 20.1473 22.9412C19.8415 22.7529 19.5983 22.4902 19.4179 22.1529C19.2454 21.8078 19.1591 21.4039 19.1591 20.9412C19.1591 20.4784 19.2454 20.0784 19.4179 19.7412C19.5983 19.4039 19.8415 19.1412 20.1473 18.9529C20.4532 18.7647 20.8062 18.6706 21.2062 18.6706C21.6062 18.6706 21.9591 18.7647 22.265 18.9529C22.5709 19.1412 22.8101 19.4039 22.9826 19.7412C23.1552 20.0784 23.2415 20.4784 23.2415 20.9412C23.2415 21.4039 23.1552 21.8078 22.9826 22.1529C22.8101 22.4902 22.5709 22.7529 22.265 22.9412C21.9591 23.1216 21.6062 23.2118 21.2062 23.2118ZM21.2062 22.2471C21.465 22.2471 21.6728 22.1412 21.8297 21.9294C21.9866 21.7098 22.065 21.3804 22.065 20.9412C22.065 20.502 21.9866 20.1765 21.8297 19.9647C21.6728 19.7451 21.465 19.6353 21.2062 19.6353C20.9552 19.6353 20.7473 19.7451 20.5826 19.9647C20.4258 20.1765 20.3473 20.502 20.3473 20.9412C20.3473 21.3725 20.4258 21.698 20.5826 21.9176C20.7473 22.1373 20.9552 22.2471 21.2062 22.2471ZM26.7944 27.0941C26.4022 27.0941 26.0493 27.0039 25.7356 26.8235C25.4297 26.6353 25.1905 26.3725 25.0179 26.0353C24.8454 25.6902 24.7591 25.2863 24.7591 24.8235C24.7591 24.3608 24.8454 23.9608 25.0179 23.6235C25.1905 23.2863 25.4297 23.0235 25.7356 22.8353C26.0493 22.6471 26.4022 22.5529 26.7944 22.5529C27.2022 22.5529 27.5591 22.6471 27.865 22.8353C28.1709 23.0235 28.4101 23.2863 28.5826 23.6235C28.7552 23.9608 28.8415 24.3608 28.8415 24.8235C28.8415 25.2863 28.7552 25.6902 28.5826 26.0353C28.4101 26.3725 28.1709 26.6353 27.865 26.8235C27.5591 27.0039 27.2022 27.0941 26.7944 27.0941ZM26.7944 26.1294C27.0532 26.1294 27.2611 26.0235 27.4179 25.8118C27.5748 25.5922 27.6532 25.2627 27.6532 24.8235C27.6532 24.3922 27.5748 24.0667 27.4179 23.8471C27.2611 23.6275 27.0532 23.5176 26.7944 23.5176C26.5434 23.5176 26.3356 23.6275 26.1709 23.8471C26.014 24.0588 25.9356 24.3843 25.9356 24.8235C25.9356 25.2627 26.014 25.5922 26.1709 25.8118C26.3356 26.0235 26.5434 26.1294 26.7944 26.1294Z" fill="#FF6B00"/>
<defs>
<clipPath id="clip0_2_160">
<rect width="28" height="28" fill="white" transform="translate(9 9)"/>
</clipPath>
</defs>
</svg>
