<svg width="46" height="46" viewBox="0 0 46 46" fill="none" xmlns="http://www.w3.org/2000/svg">
<circle cx="23" cy="23" r="23" fill="#FF6B00"/>
<path d="M17.4434 27.1797C17.4487 27.0962 17.4207 27.0139 17.3655 26.9511L14.8657 24.1072C14.8105 24.0444 14.7326 24.006 14.649 24.0006C14.5651 23.9953 14.4832 24.0233 14.4204 24.0785C13.2718 25.0882 12.3183 26.2789 11.5865 27.6176C11.5464 27.6911 11.537 27.7774 11.5605 27.8577C11.584 27.938 11.6385 28.0057 11.712 28.0458L15.0344 29.8619C15.0824 29.8882 15.1343 29.9006 15.1855 29.9006C15.2971 29.9006 15.4053 29.8412 15.4626 29.7364C15.9464 28.8515 16.5769 28.0643 17.3368 27.3964C17.3997 27.3412 17.438 27.2633 17.4434 27.1797Z" fill="white"/>
<path d="M18.5588 26.1272C18.6155 26.2341 18.7248 26.2949 18.8379 26.2949C18.8878 26.2949 18.9383 26.2831 18.9854 26.2581C19.876 25.7858 20.834 25.4776 21.8329 25.3421C22.0055 25.3187 22.1266 25.1597 22.1032 24.987L21.5943 21.2351C21.5708 21.0624 21.4114 20.9415 21.2392 20.9648C19.7222 21.1705 18.2675 21.6384 16.9155 22.3555C16.7616 22.4372 16.703 22.6281 16.7846 22.7821L18.5588 26.1272Z" fill="white"/>
<path d="M14.4941 31.2046L10.8398 30.2131C10.7591 30.1913 10.6729 30.2023 10.6003 30.2439C10.5277 30.2856 10.4746 30.3543 10.4527 30.4351C10.1523 31.5423 10 32.69 10 33.8462C10 34.044 10.0047 34.2425 10.0145 34.453C10.0224 34.6221 10.1619 34.7539 10.3295 34.7539C10.3344 34.7539 10.3394 34.7538 10.3444 34.7536L14.1267 34.5788C14.2103 34.575 14.289 34.538 14.3453 34.4762C14.4017 34.4144 14.4312 34.3326 14.4273 34.2491C14.4207 34.1071 14.4175 33.9753 14.4175 33.8462C14.4175 33.0806 14.518 32.3221 14.7162 31.5917C14.7617 31.4236 14.6623 31.2503 14.4941 31.2046Z" fill="white"/>
<path d="M28.6384 22.1298C27.2615 21.466 25.7903 21.0546 24.2658 20.9068C24.182 20.8984 24.0993 20.9242 24.0347 20.9773C23.9701 21.0305 23.9293 21.1072 23.9212 21.1905L23.5562 24.9593C23.5394 25.1327 23.6664 25.287 23.8398 25.3038C24.8447 25.4011 25.8138 25.6721 26.7202 26.109C26.7634 26.1298 26.8102 26.1404 26.8572 26.1404C26.8923 26.1404 26.9275 26.1345 26.9613 26.1227C27.0403 26.0951 27.1051 26.0372 27.1415 25.9618L28.7856 22.551C28.8613 22.394 28.7954 22.2054 28.6384 22.1298Z" fill="white"/>
<path d="M34.2002 27.423C34.2206 27.3418 34.208 27.256 34.165 27.1841C33.382 25.8741 32.3836 24.7208 31.1976 23.7563C31.1327 23.7035 31.0498 23.6788 30.9662 23.6871C30.883 23.6958 30.8066 23.737 30.7538 23.8019L28.3647 26.7394C28.3119 26.8044 28.287 26.8876 28.2956 26.9708C28.3042 27.0541 28.3455 27.1305 28.4104 27.1833C29.1951 27.8214 29.8555 28.5842 30.3734 29.4506C30.4325 29.5495 30.5371 29.6044 30.6445 29.6044C30.6996 29.6044 30.7554 29.5899 30.8061 29.5596L34.0561 27.6169C34.1279 27.5739 34.1797 27.5042 34.2002 27.423Z" fill="white"/>
<path d="M35.4066 29.9547C35.3545 29.7884 35.1773 29.6957 35.0112 29.748L31.398 30.8801C31.2317 30.9321 31.1392 31.1092 31.1913 31.2754C31.4506 32.1033 31.5821 32.9679 31.5821 33.8454C31.5821 33.9746 31.5788 34.1064 31.5723 34.2483C31.5684 34.3319 31.5979 34.4137 31.6543 34.4755C31.7107 34.5374 31.7893 34.5743 31.8729 34.5781L35.6552 34.7528C35.6603 34.753 35.6652 34.7532 35.6701 34.7532C35.8377 34.7532 35.9772 34.6213 35.9851 34.4523C35.9948 34.2418 35.9996 34.0433 35.9996 33.8454C35.9995 32.5193 35.8001 31.2103 35.4066 29.9547Z" fill="white"/>
<path d="M23.0364 33.176C23.0908 33.176 23.1449 33.1778 23.1988 33.1807L28.3245 30.1565C28.4499 30.0824 28.6092 30.1009 28.7143 30.2017C28.8195 30.3025 28.8447 30.4608 28.7762 30.5892L25.9801 35.8298C25.9904 35.9307 25.9959 36.0327 25.9959 36.1355C25.9959 36.926 25.688 37.6692 25.1291 38.2281C24.5701 38.7871 23.8269 39.095 23.0363 39.095C22.2458 39.095 21.5026 38.787 20.9437 38.2281C20.3847 37.6692 20.0769 36.926 20.0769 36.1355C20.0769 35.3449 20.3847 34.6018 20.9437 34.0428C21.5026 33.4838 22.2459 33.176 23.0364 33.176Z" fill="white"/>
<path d="M16.3102 16L19.0749 12.4L19.0513 13.1882L16.416 9.71765H18.0513L19.8984 12.1882H19.2749L21.1337 9.71765H22.7219L20.0631 13.1882L20.0749 12.4L22.8278 16H21.169L19.2278 13.3765L19.8396 13.4588L17.9337 16H16.3102ZM26.0542 16.1176C25.4738 16.1176 24.9052 16.0353 24.3483 15.8706C23.7993 15.698 23.3365 15.4627 22.9601 15.1647L23.6189 13.9765C23.9169 14.2196 24.2777 14.4157 24.7012 14.5647C25.1248 14.7137 25.5679 14.7882 26.0307 14.7882C26.5797 14.7882 27.0071 14.6784 27.313 14.4588C27.6189 14.2314 27.7718 13.9255 27.7718 13.5412C27.7718 13.1647 27.6307 12.8667 27.3483 12.6471C27.0659 12.4275 26.611 12.3176 25.9836 12.3176H25.2307V11.2706L27.5836 8.47059L27.7836 9.04706H23.3601V7.7647H28.9718V8.78823L26.6189 11.5882L25.8189 11.1176H26.2777C27.2895 11.1176 28.0463 11.3451 28.5483 11.8C29.0581 12.2471 29.313 12.8235 29.313 13.5294C29.313 13.9922 29.1954 14.4196 28.9601 14.8118C28.7248 15.2039 28.364 15.5216 27.8777 15.7647C27.3993 16 26.7914 16.1176 26.0542 16.1176Z" fill="white"/>
</svg>
