<svg width="28" height="28" viewBox="0 0 28 28" fill="none" xmlns="http://www.w3.org/2000/svg">
<circle cx="14" cy="14" r="14" fill="#26D044"/>
<g clip-path="url(#clip0_2_31)">
<path d="M10.5283 19.1476L10.7692 19.2726C11.7732 19.8977 12.8975 20.1894 14.0219 20.1894C17.5555 20.1894 20.4467 17.1889 20.4467 13.5215C20.4467 11.7712 19.7641 10.0625 18.5594 8.81222C17.3548 7.56196 15.7485 6.85352 14.0219 6.85352C10.4882 6.85352 7.59695 9.8541 7.63713 13.5632C7.63713 14.8134 7.99853 16.022 8.60084 17.0638L8.76145 17.3139L8.11902 19.7727L10.5283 19.1476Z" fill="#26D044"/>
<path d="M19.2416 8.14497C17.8763 6.68638 15.989 5.89453 14.0616 5.89453C9.96576 5.89453 6.67299 9.35353 6.71312 13.5627C6.71312 14.8963 7.07451 16.1882 7.67688 17.3551L6.63281 21.3142L10.5279 20.2723C11.6121 20.8975 12.8167 21.1892 14.0214 21.1892C18.0771 21.1892 21.3699 17.7302 21.3699 13.5211C21.3699 11.479 20.6069 9.56191 19.2417 8.14497H19.2416ZM14.0616 19.8973C12.9774 19.8973 11.8932 19.6057 10.9696 19.0222L10.7287 18.8972L8.39968 19.5223L9.00199 17.1468L8.84138 16.8967C7.07451 13.9379 7.9178 10.0203 10.809 8.18661C13.7002 6.35295 17.4346 7.22814 19.2015 10.2287C20.9683 13.2293 20.125 17.1051 17.2339 18.9388C16.3103 19.5639 15.1859 19.8973 14.0616 19.8973V19.8973ZM17.5952 15.2715L17.1535 15.0631C17.1535 15.0631 16.5111 14.7713 16.1095 14.563C16.0693 14.563 16.0292 14.5213 15.989 14.5213C15.8686 14.5213 15.7882 14.563 15.7079 14.6047C15.7079 14.6047 15.6678 14.6463 15.1056 15.3131C15.0655 15.3965 14.9851 15.4382 14.9048 15.4382H14.8647C14.8245 15.4382 14.7442 15.3965 14.7041 15.3548L14.5033 15.2715C14.0616 15.0631 13.66 14.813 13.3388 14.4796C13.2585 14.3963 13.138 14.3129 13.0577 14.2296C12.7766 13.9379 12.4955 13.6044 12.2948 13.2294L12.2546 13.146C12.2144 13.1043 12.2144 13.0627 12.1743 12.9793C12.1743 12.896 12.1743 12.8126 12.2144 12.7709C12.2144 12.7709 12.3751 12.5626 12.4955 12.4376C12.5758 12.3542 12.616 12.2292 12.6963 12.1458C12.7766 12.0208 12.8168 11.8541 12.7766 11.7291C12.7365 11.5207 12.2546 10.3955 12.1341 10.1454C12.0538 10.0204 11.9735 9.97875 11.8531 9.93705H11.4113C11.331 9.93705 11.2507 9.97875 11.1704 9.97875L11.1302 10.0204C11.0499 10.0621 10.9696 10.1454 10.8893 10.1871C10.809 10.2705 10.7688 10.3538 10.6885 10.4372C10.4074 10.8122 10.2468 11.2707 10.2468 11.7291C10.2468 12.0624 10.3271 12.3959 10.4476 12.6876L10.4878 12.8126C10.8492 13.6044 11.331 14.3129 11.9735 14.938L12.1341 15.1047C12.2546 15.2298 12.3751 15.3131 12.4554 15.4381C13.2986 16.1883 14.2624 16.7301 15.3465 17.0218C15.467 17.0634 15.6276 17.0634 15.7481 17.1051H16.1496C16.3504 17.1051 16.5913 17.0218 16.752 16.9384C16.8724 16.8551 16.9527 16.8551 17.0331 16.7718L17.1134 16.6884C17.1937 16.605 17.274 16.5634 17.3543 16.48C17.4346 16.3967 17.5149 16.3133 17.5551 16.2299C17.6354 16.0633 17.6755 15.8549 17.7157 15.6465V15.3548C17.7157 15.3548 17.6755 15.3131 17.5952 15.2715Z" fill="white"/>
</g>
<defs>
<clipPath id="clip0_2_31">
<rect width="14.7368" height="15.4737" fill="white" transform="translate(6.63281 5.89453)"/>
</clipPath>
</defs>
</svg>
